Courier Primal Italic.ufo
<glyph name="quotedbl" format="2">
  <advance width="1228"/>
  <unicode hex="0022"/>
  <outline>
    <contour>
      <point x="649" y="1209" type="line" smooth="yes"/>
      <point x="672.0" y="1209.0" name="inserted"/>
      <point x="688.0" y="1184.0"/>
      <point x="681" y="1159" type="qcurve" smooth="yes"/>
      <point x="547" y="709" type="line" smooth="yes"/>
      <point x="539" y="683"/>
      <point x="499" y="655"/>
      <point x="469" y="655" type="qcurve" smooth="yes"/>
      <point x="440" y="655"/>
      <point x="409" y="683"/>
      <point x="411" y="709" type="qcurve" smooth="yes"/>
      <point x="435" y="1159" type="line" smooth="yes"/>
      <point x="436.5" y="1184.0" name="inserted"/>
      <point x="461.5" y="1209.0"/>
      <point x="485" y="1209" type="qcurve" smooth="yes"/>
    </contour>
    <contour>
      <point x="1029" y="1209" type="line" smooth="yes"/>
      <point x="1052.0" y="1209.0" name="inserted"/>
      <point x="1068.0" y="1184.0"/>
      <point x="1061" y="1159" type="qcurve" smooth="yes"/>
      <point x="927" y="709" type="line" smooth="yes"/>
      <point x="919" y="683"/>
      <point x="879" y="655"/>
      <point x="849" y="655" type="qcurve" smooth="yes"/>
      <point x="820" y="655"/>
      <point x="789" y="683"/>
      <point x="791" y="709" type="qcurve" smooth="yes"/>
      <point x="815" y="1159" type="line" smooth="yes"/>
      <point x="816.5" y="1184.0" name="inserted"/>
      <point x="841.5" y="1209.0"/>
      <point x="865" y="1209" type="qcurve" smooth="yes"/>
    </contour>
  </outline>
</glyph>
<glyph name="ampersand" format="2">
  <advance width="1228"/>
  <unicode hex="0026"/>
  <outline>
    <contour>
      <point x="1004" y="924" type="line" smooth="yes"/>
      <point x="998" y="889"/>
      <point x="960" y="859"/>
      <point x="918" y="859" type="qcurve" smooth="yes"/>
      <point x="876" y="859"/>
      <point x="848" y="889"/>
      <point x="854" y="924" type="qcurve" smooth="yes"/>
      <point x="870" y="1014" type="line"/>
      <point x="838" y="1036"/>
      <point x="751" y="1061"/>
      <point x="694" y="1061" type="qcurve" smooth="yes"/>
      <point x="650" y="1061"/>
      <point x="573" y="1030"/>
      <point x="544.0" y="1002.0" type="qcurve" smooth="yes" name="inserted"/>
      <point x="515" y="974"/>
      <point x="482" y="896"/>
      <point x="482" y="850" type="qcurve" smooth="yes"/>
      <point x="482" y="809"/>
      <point x="509" y="738"/>
      <point x="535" y="702" type="qcurve" smooth="yes"/>
      <point x="768" y="374" type="line"/>
      <point x="796" y="418"/>
      <point x="848" y="515"/>
      <point x="873" y="569" type="qcurve" smooth="yes"/>
      <point x="881" y="587"/>
      <point x="909" y="611"/>
      <point x="932" y="611" type="qcurve" smooth="yes"/>
      <point x="1093" y="611" type="line" smooth="yes"/>
      <point x="1127" y="611"/>
      <point x="1151" y="581"/>
      <point x="1144" y="543" type="qcurve" smooth="yes"/>
      <point x="1137" y="505"/>
      <point x="1103" y="475"/>
      <point x="1069" y="475" type="qcurve" smooth="yes"/>
      <point x="986" y="475" type="line"/>
      <point x="957" y="412"/>
      <point x="892" y="301"/>
      <point x="856" y="251" type="qcurve"/>
      <point x="939" y="136" type="line"/>
      <point x="1023" y="136" type="line" smooth="yes"/>
      <point x="1057" y="136"/>
      <point x="1081" y="106"/>
      <point x="1074" y="68" type="qcurve" smooth="yes"/>
      <point x="1068" y="30"/>
      <point x="1034" y="0"/>
      <point x="1000" y="0" type="qcurve" smooth="yes"/>
      <point x="896" y="0" type="line" smooth="yes"/>
      <point x="874" y="0"/>
      <point x="836" y="16"/>
      <point x="823" y="33" type="qcurve" smooth="yes"/>
      <point x="753" y="130" type="line"/>
      <point x="679" y="58"/>
      <point x="513" y="-22"/>
      <point x="422" y="-22" type="qcurve" smooth="yes"/>
      <point x="350" y="-22"/>
      <point x="241" y="22"/>
      <point x="203.5" y="60.5" type="qcurve" smooth="yes" name="inserted"/>
      <point x="166" y="99"/>
      <point x="128" y="201"/>
      <point x="128" y="258" type="qcurve" smooth="yes"/>
      <point x="128" y="323"/>
      <point x="167" y="434"/>
      <point x="201.5" y="481.5" type="qcurve" smooth="yes" name="inserted"/>
      <point x="236" y="529"/>
      <point x="332" y="609"/>
      <point x="388" y="643" type="qcurve"/>
      <point x="362" y="685"/>
      <point x="326" y="785"/>
      <point x="326" y="843" type="qcurve" smooth="yes"/>
      <point x="326" y="909"/>
      <point x="377" y="1040"/>
      <point x="426.0" y="1092.0" type="qcurve" smooth="yes" name="inserted"/>
      <point x="475" y="1144"/>
      <point x="618" y="1209"/>
      <point x="711" y="1209" type="qcurve" smooth="yes"/>
      <point x="807" y="1209"/>
      <point x="958" y="1151"/>
      <point x="1015" y="1105" type="qcurve" smooth="yes"/>
      <point x="1024.0" y="1097.5" name="inserted"/>
      <point x="1030.0" y="1070.5"/>
      <point x="1027" y="1051" type="qcurve" smooth="yes"/>
    </contour>
    <contour>
      <point x="438" y="126" type="qcurve" smooth="yes"/>
      <point x="503" y="126"/>
      <point x="618" y="188"/>
      <point x="671" y="245" type="qcurve"/>
      <point x="466" y="533" type="line"/>
      <point x="430" y="511"/>
      <point x="365" y="459"/>
      <point x="340.0" y="427.0" type="qcurve" smooth="yes" name="inserted"/>
      <point x="315" y="395"/>
      <point x="286" y="319"/>
      <point x="286" y="274" type="qcurve" smooth="yes"/>
      <point x="286" y="208"/>
      <point x="366" y="126"/>
    </contour>
  </outline>
</glyph>
<glyph name="quotesingle" format="2">
  <advance width="1228"/>
  <unicode hex="0027"/>
  <outline>
    <contour>
      <point x="839" y="1209" type="line" smooth="yes"/>
      <point x="862.0" y="1209.0" name="inserted"/>
      <point x="878.0" y="1184.0"/>
      <point x="871" y="1159" type="qcurve" smooth="yes"/>
      <point x="737" y="709" type="line" smooth="yes"/>
      <point x="729" y="683"/>
      <point x="689" y="655"/>
      <point x="659" y="655" type="qcurve" smooth="yes"/>
      <point x="630" y="655"/>
      <point x="599" y="683"/>
      <point x="601" y="709" type="qcurve" smooth="yes"/>
      <point x="625" y="1159" type="line" smooth="yes"/>
      <point x="626.5" y="1184.0" name="inserted"/>
      <point x="651.5" y="1209.0"/>
      <point x="675" y="1209" type="qcurve" smooth="yes"/>
    </contour>
  </outline>
</glyph>
<glyph name="parenright" format="2">
  <advance width="1228"/>
  <unicode hex="0029"/>
  <outline>
    <contour>
      <point x="808" y="615" type="qcurve" smooth="yes"/>
      <point x="808" y="722"/>
      <point x="761" y="904"/>
      <point x="721.0" y="979.0" type="qcurve" smooth="yes" name="inserted"/>
      <point x="681" y="1054"/>
      <point x="578" y="1170"/>
      <point x="522" y="1212" type="qcurve" smooth="yes"/>
      <point x="515" y="1217"/>
      <point x="512" y="1236"/>
      <point x="515.0" y="1247.0" type="qcurve" smooth="yes" name="inserted"/>
      <point x="518" y="1258"/>
      <point x="532" y="1282"/>
      <point x="541" y="1292" type="qcurve" smooth="yes"/>
      <point x="558" y="1310"/>
      <point x="599" y="1327"/>
      <point x="618" y="1314" type="qcurve" smooth="yes"/>
      <point x="682" y="1270"/>
      <point x="803" y="1135"/>
      <point x="850.0" y="1046.5" type="qcurve" smooth="yes" name="inserted"/>
      <point x="897" y="958"/>
      <point x="955" y="741"/>
      <point x="955" y="615" type="qcurve" smooth="yes"/>
      <point x="955" y="455"/>
      <point x="861" y="150"/>
      <point x="777.0" y="17.0" type="qcurve" smooth="yes" name="inserted"/>
      <point x="693" y="-116"/>
      <point x="459" y="-330"/>
      <point x="319" y="-398" type="qcurve" smooth="yes"/>
      <point x="295" y="-409"/>
      <point x="258" y="-381"/>
      <point x="248" y="-357" type="qcurve" smooth="yes"/>
      <point x="242" y="-344"/>
      <point x="237" y="-316"/>
      <point x="238.0" y="-303.5" type="qcurve" smooth="yes" name="inserted"/>
      <point x="239" y="-291"/>
      <point x="249" y="-271"/>
      <point x="258" y="-266" type="qcurve" smooth="yes"/>
      <point x="385" y="-200"/>
      <point x="589" y="-15"/>
      <point x="660.0" y="98.0" type="qcurve" smooth="yes" name="inserted"/>
      <point x="731" y="211"/>
      <point x="808" y="472"/>
    </contour>
  </outline>
</glyph>
<glyph name="seven" format="2">
  <advance width="1228"/>
  <unicode hex="0037"/>
  <outline>
    <contour>
      <point x="963" y="1051" type="line"/>
      <point x="494" y="1051" type="line"/>
      <point x="468" y="905" type="line" smooth="yes"/>
      <point x="462" y="870"/>
      <point x="424" y="840"/>
      <point x="382" y="840" type="qcurve" smooth="yes"/>
      <point x="340" y="840"/>
      <point x="312" y="870"/>
      <point x="318" y="905" type="qcurve" smooth="yes"/>
      <point x="356" y="1119" type="line" smooth="yes"/>
      <point x="363" y="1157"/>
      <point x="397" y="1187"/>
      <point x="431" y="1187" type="qcurve" smooth="yes"/>
      <point x="1105" y="1187" type="line" smooth="yes"/>
      <point x="1139" y="1187"/>
      <point x="1163" y="1157"/>
      <point x="1156" y="1119" type="qcurve" smooth="yes"/>
      <point x="1154" y="1106"/>
      <point x="1146" y="1085"/>
      <point x="1143" y="1079" type="qcurve"/>
      <point x="531" y="24" type="line" smooth="yes"/>
      <point x="517" y="0"/>
      <point x="468" y="-22"/>
      <point x="442" y="-22" type="qcurve" smooth="yes"/>
      <point x="424" y="-22"/>
      <point x="392" y="-11"/>
      <point x="382.5" y="-1.0" type="qcurve" smooth="yes" name="inserted"/>
      <point x="373" y="9"/>
      <point x="369" y="38"/>
      <point x="380" y="56" type="qcurve" smooth="yes"/>
    </contour>
  </outline>
</glyph>
<glyph name="A" format="2">
  <advance width="1228"/>
  <unicode hex="0041"/>
  <outline>
    <contour>
      <point x="360" y="136" type="line" smooth="yes"/>
      <point x="394" y="136"/>
      <point x="418" y="106"/>
      <point x="411" y="68" type="qcurve" smooth="yes"/>
      <point x="405" y="30"/>
      <point x="371" y="0"/>
      <point x="337" y="0" type="qcurve" smooth="yes"/>
      <point x="3" y="0" type="line" smooth="yes"/>
      <point x="-31" y="0"/>
      <point x="-55" y="30"/>
      <point x="-49" y="68" type="qcurve" smooth="yes"/>
      <point x="-42" y="106"/>
      <point x="-8" y="136"/>
      <point x="26" y="136" type="qcurve" smooth="yes"/>
      <point x="79" y="136" type="line"/>
      <point x="572" y="1051" type="line"/>
      <point x="388" y="1051" type="line" smooth="yes"/>
      <point x="354" y="1051"/>
      <point x="330" y="1081"/>
      <point x="337" y="1119" type="qcurve" smooth="yes"/>
      <point x="344" y="1157"/>
      <point x="378" y="1187"/>
      <point x="412" y="1187" type="qcurve" smooth="yes"/>
      <point x="776" y="1187" type="line" smooth="yes"/>
      <point x="816" y="1187"/>
      <point x="859" y="1157"/>
      <point x="865" y="1122" type="qcurve" smooth="yes"/>
      <point x="1044" y="136" type="line"/>
      <point x="1108" y="136" type="line" smooth="yes"/>
      <point x="1142" y="136"/>
      <point x="1166" y="106"/>
      <point x="1159" y="68" type="qcurve" smooth="yes"/>
      <point x="1153" y="30"/>
      <point x="1119" y="0"/>
      <point x="1085" y="0" type="qcurve" smooth="yes"/>
      <point x="731" y="0" type="line" smooth="yes"/>
      <point x="697" y="0"/>
      <point x="673" y="30"/>
      <point x="679" y="68" type="qcurve" smooth="yes"/>
      <point x="686" y="106"/>
      <point x="720" y="136"/>
      <point x="754" y="136" type="qcurve" smooth="yes"/>
      <point x="894" y="136" type="line"/>
      <point x="854" y="374" type="line"/>
      <point x="369" y="374" type="line"/>
      <point x="244" y="136" type="line"/>
    </contour>
    <contour>
      <point x="440" y="510" type="line"/>
      <point x="832" y="510" type="line"/>
      <point x="742" y="1051" type="line"/>
      <point x="723" y="1051" type="line"/>
    </contour>
  </outline>
</glyph>
<glyph name="L" format="2">
  <advance width="1228"/>
  <unicode hex="004C"/>
  <outline>
    <contour>
      <point x="420" y="1051" type="line"/>
      <point x="258" y="1051" type="line" smooth="yes"/>
      <point x="224" y="1051"/>
      <point x="200" y="1081"/>
      <point x="207" y="1119" type="qcurve" smooth="yes"/>
      <point x="214" y="1157"/>
      <point x="248" y="1187"/>
      <point x="282" y="1187" type="qcurve" smooth="yes"/>
      <point x="836" y="1187" type="line" smooth="yes"/>
      <point x="870" y="1187"/>
      <point x="894" y="1157"/>
      <point x="887" y="1119" type="qcurve" smooth="yes"/>
      <point x="880" y="1081"/>
      <point x="846" y="1051"/>
      <point x="812" y="1051" type="qcurve" smooth="yes"/>
      <point x="570" y="1051" type="line"/>
      <point x="408" y="136" type="line"/>
      <point x="903" y="136" type="line"/>
      <point x="961" y="465" type="line" smooth="yes"/>
      <point x="968" y="500"/>
      <point x="1006" y="530"/>
      <point x="1048" y="530" type="qcurve" smooth="yes"/>
      <point x="1090" y="530"/>
      <point x="1118" y="500"/>
      <point x="1111" y="465" type="qcurve" smooth="yes"/>
      <point x="1041" y="68" type="line" smooth="yes"/>
      <point x="1035" y="30"/>
      <point x="1001" y="0"/>
      <point x="967" y="0" type="qcurve" smooth="yes"/>
      <point x="73" y="0" type="line" smooth="yes"/>
      <point x="39" y="0"/>
      <point x="15" y="30"/>
      <point x="21" y="68" type="qcurve" smooth="yes"/>
      <point x="28" y="106"/>
      <point x="62" y="136"/>
      <point x="96" y="136" type="qcurve" smooth="yes"/>
      <point x="258" y="136" type="line"/>
    </contour>
  </outline>
</glyph>
<glyph name="O" format="2">
  <advance width="1228"/>
  <unicode hex="004F"/>
  <outline>
    <contour>
      <point x="1185" y="728" type="qcurve" smooth="yes"/>
      <point x="1185" y="638"/>
      <point x="1148" y="456"/>
      <point x="1112.0" y="373.0" type="qcurve" smooth="yes" name="inserted"/>
      <point x="1076" y="290"/>
      <point x="970" y="145"/>
      <point x="900.0" y="92.0" type="qcurve" smooth="yes" name="inserted"/>
      <point x="830" y="39"/>
      <point x="657" y="-22"/>
      <point x="555" y="-22" type="qcurve" smooth="yes"/>
      <point x="453" y="-22"/>
      <point x="289" y="46"/>
      <point x="231.0" y="109.0" type="qcurve" smooth="yes" name="inserted"/>
      <point x="173" y="172"/>
      <point x="111" y="349"/>
      <point x="111" y="458" type="qcurve" smooth="yes"/>
      <point x="111" y="548"/>
      <point x="148" y="730"/>
      <point x="184.0" y="813.5" type="qcurve" smooth="yes" name="inserted"/>
      <point x="220" y="897"/>
      <point x="327" y="1041"/>
      <point x="397.0" y="1094.5" type="qcurve" smooth="yes" name="inserted"/>
      <point x="467" y="1148"/>
      <point x="640" y="1209"/>
      <point x="742" y="1209" type="qcurve" smooth="yes"/>
      <point x="844" y="1209"/>
      <point x="1008" y="1140"/>
      <point x="1065.5" y="1077.0" type="qcurve" smooth="yes" name="inserted"/>
      <point x="1123" y="1014"/>
      <point x="1185" y="837"/>
    </contour>
    <contour>
      <point x="1028" y="722" type="qcurve" smooth="yes"/>
      <point x="1028" y="801"/>
      <point x="988" y="927"/>
      <point x="949.5" y="970.5" type="qcurve" smooth="yes" name="inserted"/>
      <point x="911" y="1014"/>
      <point x="801" y="1061"/>
      <point x="731" y="1061" type="qcurve" smooth="yes"/>
      <point x="655" y="1061"/>
      <point x="528" y="1011"/>
      <point x="476.5" y="967.5" type="qcurve" smooth="yes" name="inserted"/>
      <point x="425" y="924"/>
      <point x="347" y="807"/>
      <point x="321.0" y="741.0" type="qcurve" smooth="yes" name="inserted"/>
      <point x="295" y="675"/>
      <point x="268" y="533"/>
      <point x="268" y="465" type="qcurve" smooth="yes"/>
      <point x="268" y="385"/>
      <point x="309" y="260"/>
      <point x="347.0" y="216.0" type="qcurve" smooth="yes" name="inserted"/>
      <point x="385" y="172"/>
      <point x="496" y="126"/>
      <point x="566" y="126" type="qcurve" smooth="yes"/>
      <point x="641" y="126"/>
      <point x="769" y="176"/>
      <point x="820.0" y="219.5" type="qcurve" smooth="yes" name="inserted"/>
      <point x="871" y="263"/>
      <point x="949" y="380"/>
      <point x="975.5" y="446.0" type="qcurve" smooth="yes" name="inserted"/>
      <point x="1002" y="512"/>
      <point x="1028" y="654"/>
    </contour>
  </outline>
</glyph>
<glyph name="P" format="2">
  <advance width="1228"/>
  <unicode hex="0050"/>
  <outline>
    <contour>
      <point x="420" y="1051" type="line"/>
      <point x="258" y="1051" type="line" smooth="yes"/>
      <point x="224" y="1051"/>
      <point x="200" y="1081"/>
      <point x="207" y="1119" type="qcurve" smooth="yes"/>
      <point x="214" y="1157"/>
      <point x="248" y="1187"/>
      <point x="282" y="1187" type="qcurve" smooth="yes"/>
      <point x="819" y="1187" type="line" smooth="yes"/>
      <point x="908" y="1187"/>
      <point x="1046" y="1142"/>
      <point x="1093.0" y="1100.5" type="qcurve" smooth="yes" name="inserted"/>
      <point x="1140" y="1059"/>
      <point x="1189" y="944"/>
      <point x="1189" y="875" type="qcurve" smooth="yes"/>
      <point x="1189" y="796"/>
      <point x="1135" y="638"/>
      <point x="1077.0" y="575.0" type="qcurve" smooth="yes" name="inserted"/>
      <point x="1019" y="512"/>
      <point x="836" y="433"/>
      <point x="706" y="433" type="qcurve" smooth="yes"/>
      <point x="461" y="433" type="line"/>
      <point x="408" y="136" type="line"/>
      <point x="648" y="136" type="line" smooth="yes"/>
      <point x="682" y="136"/>
      <point x="706" y="106"/>
      <point x="699" y="68" type="qcurve" smooth="yes"/>
      <point x="693" y="30"/>
      <point x="659" y="0"/>
      <point x="625" y="0" type="qcurve" smooth="yes"/>
      <point x="73" y="0" type="line" smooth="yes"/>
      <point x="39" y="0"/>
      <point x="15" y="30"/>
      <point x="21" y="68" type="qcurve" smooth="yes"/>
      <point x="28" y="106"/>
      <point x="62" y="136"/>
      <point x="96" y="136" type="qcurve" smooth="yes"/>
      <point x="258" y="136" type="line"/>
    </contour>
    <contour>
      <point x="699" y="569" type="line" smooth="yes"/>
      <point x="789" y="569"/>
      <point x="915" y="620"/>
      <point x="955.0" y="661.5" type="qcurve" smooth="yes" name="inserted"/>
      <point x="995" y="703"/>
      <point x="1031" y="807"/>
      <point x="1031" y="861" type="qcurve" smooth="yes"/>
      <point x="1031" y="951"/>
      <point x="908" y="1051"/>
      <point x="784" y="1051" type="qcurve" smooth="yes"/>
      <point x="570" y="1051" type="line"/>
      <point x="485" y="569" type="line"/>
    </contour>
  </outline>
</glyph>
<glyph name="T" format="2">
  <advance width="1228"/>
  <unicode hex="0054"/>
  <outline>
    <contour>
      <point x="654" y="1051" type="line"/>
      <point x="387" y="1051" type="line"/>
      <point x="332" y="742" type="line" smooth="yes"/>
      <point x="326" y="707"/>
      <point x="288" y="677"/>
      <point x="246" y="677" type="qcurve" smooth="yes"/>
      <point x="204" y="677"/>
      <point x="176" y="707"/>
      <point x="182" y="742" type="qcurve" smooth="yes"/>
      <point x="249" y="1119" type="line" smooth="yes"/>
      <point x="256" y="1157"/>
      <point x="290" y="1187"/>
      <point x="324" y="1187" type="qcurve" smooth="yes"/>
      <point x="1182" y="1187" type="line" smooth="yes"/>
      <point x="1216" y="1187"/>
      <point x="1240" y="1157"/>
      <point x="1233" y="1119" type="qcurve" smooth="yes"/>
      <point x="1166" y="742" type="line" smooth="yes"/>
      <point x="1160" y="707"/>
      <point x="1122" y="677"/>
      <point x="1080" y="677" type="qcurve" smooth="yes"/>
      <point x="1038" y="677"/>
      <point x="1010" y="707"/>
      <point x="1016" y="742" type="qcurve" smooth="yes"/>
      <point x="1071" y="1051" type="line"/>
      <point x="804" y="1051" type="line"/>
      <point x="642" y="136" type="line"/>
      <point x="888" y="136" type="line" smooth="yes"/>
      <point x="922" y="136"/>
      <point x="946" y="106"/>
      <point x="939" y="68" type="qcurve" smooth="yes"/>
      <point x="933" y="30"/>
      <point x="899" y="0"/>
      <point x="865" y="0" type="qcurve" smooth="yes"/>
      <point x="243" y="0" type="line" smooth="yes"/>
      <point x="209" y="0"/>
      <point x="185" y="30"/>
      <point x="191" y="68" type="qcurve" smooth="yes"/>
      <point x="198" y="106"/>
      <point x="232" y="136"/>
      <point x="266" y="136" type="qcurve" smooth="yes"/>
      <point x="492" y="136" type="line"/>
    </contour>
  </outline>
</glyph>
<glyph name="W" format="2">
  <advance width="1228"/>
  <unicode hex="0057"/>
  <outline>
    <contour>
      <point x="168" y="1051" type="line" smooth="yes"/>
      <point x="134" y="1051"/>
      <point x="110" y="1081"/>
      <point x="117" y="1119" type="qcurve" smooth="yes"/>
      <point x="124" y="1157"/>
      <point x="158" y="1187"/>
      <point x="192" y="1187" type="qcurve" smooth="yes"/>
      <point x="536" y="1187" type="line" smooth="yes"/>
      <point x="570" y="1187"/>
      <point x="594" y="1157"/>
      <point x="587" y="1119" type="qcurve" smooth="yes"/>
      <point x="580" y="1081"/>
      <point x="546" y="1051"/>
      <point x="512" y="1051" type="qcurve" smooth="yes"/>
      <point x="366" y="1051" type="line"/>
      <point x="325" y="254" type="line"/>
      <point x="614" y="838" type="line" smooth="yes"/>
      <point x="624" y="858"/>
      <point x="663" y="885"/>
      <point x="695" y="885" type="qcurve" smooth="yes"/>
      <point x="728" y="885"/>
      <point x="757" y="865"/>
      <point x="760" y="845" type="qcurve" smooth="yes"/>
      <point x="844" y="247" type="line"/>
      <point x="1090" y="1051" type="line"/>
      <point x="966" y="1051" type="line" smooth="yes"/>
      <point x="932" y="1051"/>
      <point x="908" y="1081"/>
      <point x="915" y="1119" type="qcurve" smooth="yes"/>
      <point x="922" y="1157"/>
      <point x="956" y="1187"/>
      <point x="990" y="1187" type="qcurve" smooth="yes"/>
      <point x="1314" y="1187" type="line" smooth="yes"/>
      <point x="1348" y="1187"/>
      <point x="1372" y="1157"/>
      <point x="1365" y="1119" type="qcurve" smooth="yes"/>
      <point x="1358" y="1081"/>
      <point x="1324" y="1051"/>
      <point x="1290" y="1051" type="qcurve" smooth="yes"/>
      <point x="1240" y="1051" type="line"/>
      <point x="924" y="43" type="line" smooth="yes"/>
      <point x="912" y="6"/>
      <point x="865" y="-22"/>
      <point x="827" y="-22" type="qcurve" smooth="yes"/>
      <point x="789" y="-22"/>
      <point x="741" y="8"/>
      <point x="736" y="43" type="qcurve" smooth="yes"/>
      <point x="654" y="624" type="line"/>
      <point x="364" y="43" type="line" smooth="yes"/>
      <point x="347" y="8"/>
      <point x="287" y="-22"/>
      <point x="249" y="-22" type="qcurve" smooth="yes"/>
      <point x="211" y="-22"/>
      <point x="174" y="7"/>
      <point x="176" y="43" type="qcurve" smooth="yes"/>
      <point x="221" y="1051" type="line"/>
    </contour>
  </outline>
</glyph>
<glyph name="X" format="2">
  <advance width="1228"/>
  <unicode hex="0058"/>
  <outline>
    <contour>
      <point x="258" y="1051" type="line" smooth="yes"/>
      <point x="224" y="1051"/>
      <point x="200" y="1081"/>
      <point x="207" y="1119" type="qcurve" smooth="yes"/>
      <point x="214" y="1157"/>
      <point x="248" y="1187"/>
      <point x="282" y="1187" type="qcurve" smooth="yes"/>
      <point x="626" y="1187" type="line" smooth="yes"/>
      <point x="660" y="1187"/>
      <point x="684" y="1157"/>
      <point x="677" y="1119" type="qcurve" smooth="yes"/>
      <point x="670" y="1081"/>
      <point x="636" y="1051"/>
      <point x="602" y="1051" type="qcurve" smooth="yes"/>
      <point x="505" y="1051" type="line"/>
      <point x="671" y="735" type="line"/>
      <point x="948" y="1051" type="line"/>
      <point x="896" y="1051" type="line" smooth="yes"/>
      <point x="862" y="1051"/>
      <point x="838" y="1081"/>
      <point x="845" y="1119" type="qcurve" smooth="yes"/>
      <point x="852" y="1157"/>
      <point x="886" y="1187"/>
      <point x="920" y="1187" type="qcurve" smooth="yes"/>
      <point x="1224" y="1187" type="line" smooth="yes"/>
      <point x="1258" y="1187"/>
      <point x="1282" y="1157"/>
      <point x="1275" y="1119" type="qcurve" smooth="yes"/>
      <point x="1268" y="1081"/>
      <point x="1234" y="1051"/>
      <point x="1200" y="1051" type="qcurve" smooth="yes"/>
      <point x="1143" y="1051" type="line"/>
      <point x="747" y="607" type="line"/>
      <point x="1002" y="136" type="line"/>
      <point x="1068" y="136" type="line" smooth="yes"/>
      <point x="1102" y="136"/>
      <point x="1126" y="106"/>
      <point x="1119" y="68" type="qcurve" smooth="yes"/>
      <point x="1113" y="30"/>
      <point x="1079" y="0"/>
      <point x="1045" y="0" type="qcurve" smooth="yes"/>
      <point x="691" y="0" type="line" smooth="yes"/>
      <point x="657" y="0"/>
      <point x="633" y="30"/>
      <point x="639" y="68" type="qcurve" smooth="yes"/>
      <point x="646" y="106"/>
      <point x="680" y="136"/>
      <point x="714" y="136" type="qcurve" smooth="yes"/>
      <point x="831" y="136" type="line"/>
      <point x="640" y="501" type="line"/>
      <point x="315" y="136" type="line"/>
      <point x="390" y="136" type="line" smooth="yes"/>
      <point x="424" y="136"/>
      <point x="448" y="106"/>
      <point x="441" y="68" type="qcurve" smooth="yes"/>
      <point x="435" y="30"/>
      <point x="401" y="0"/>
      <point x="367" y="0" type="qcurve" smooth="yes"/>
      <point x="43" y="0" type="line" smooth="yes"/>
      <point x="9" y="0"/>
      <point x="-15" y="30"/>
      <point x="-9" y="68" type="qcurve" smooth="yes"/>
      <point x="-2" y="106"/>
      <point x="32" y="136"/>
      <point x="66" y="136" type="qcurve" smooth="yes"/>
      <point x="120" y="136" type="line"/>
      <point x="564" y="629" type="line"/>
      <point x="335" y="1051" type="line"/>
    </contour>
  </outline>
</glyph>
<glyph name="bracketleft" format="2">
  <advance width="1228"/>
  <unicode hex="005B"/>
  <outline>
    <contour>
      <point x="691" y="-257" type="line" smooth="yes"/>
      <point x="725" y="-257"/>
      <point x="749" y="-287"/>
      <point x="742" y="-325" type="qcurve" smooth="yes"/>
      <point x="735" y="-363"/>
      <point x="701" y="-393"/>
      <point x="667" y="-393" type="qcurve" smooth="yes"/>
      <point x="253" y="-393" type="line" smooth="yes"/>
      <point x="219" y="-393"/>
      <point x="195" y="-363"/>
      <point x="202" y="-325" type="qcurve" smooth="yes"/>
      <point x="479" y="1244" type="line" smooth="yes"/>
      <point x="486" y="1282"/>
      <point x="520" y="1312"/>
      <point x="554" y="1312" type="qcurve" smooth="yes"/>
      <point x="968" y="1312" type="line" smooth="yes"/>
      <point x="1002" y="1312"/>
      <point x="1026" y="1282"/>
      <point x="1019" y="1244" type="qcurve" smooth="yes"/>
      <point x="1012" y="1206"/>
      <point x="978" y="1176"/>
      <point x="944" y="1176" type="qcurve" smooth="yes"/>
      <point x="617" y="1176" type="line"/>
      <point x="364" y="-257" type="line"/>
    </contour>
  </outline>
</glyph>
<glyph name="b" format="2">
  <advance width="1228"/>
  <unicode hex="0062"/>
  <outline>
    <contour>
      <point x="595" y="-22" type="qcurve" smooth="yes"/>
      <point x="544" y="-22"/>
      <point x="453" y="4"/>
      <point x="414.5" y="28.0" type="qcurve" smooth="yes" name="inserted"/>
      <point x="376" y="52"/>
      <point x="314" y="118"/>
      <point x="290" y="158" type="qcurve"/>
      <point x="271" y="55" type="line" smooth="yes"/>
      <point x="265" y="20"/>
      <point x="232" y="-10"/>
      <point x="190" y="-10" type="qcurve" smooth="yes"/>
      <point x="148" y="-10"/>
      <point x="125" y="20"/>
      <point x="131" y="55" type="qcurve" smooth="yes"/>
      <point x="329" y="1176" type="line"/>
      <point x="227" y="1176" type="line" smooth="yes"/>
      <point x="193" y="1176"/>
      <point x="169" y="1206"/>
      <point x="176" y="1244" type="qcurve" smooth="yes"/>
      <point x="183" y="1282"/>
      <point x="217" y="1312"/>
      <point x="251" y="1312" type="qcurve" smooth="yes"/>
      <point x="440" y="1312" type="line" smooth="yes"/>
      <point x="474" y="1312"/>
      <point x="498" y="1282"/>
      <point x="491" y="1244" type="qcurve" smooth="yes"/>
      <point x="411" y="791" type="line"/>
      <point x="483" y="866"/>
      <point x="648" y="946"/>
      <point x="745" y="946" type="qcurve" smooth="yes"/>
      <point x="826" y="946"/>
      <point x="960" y="892"/>
      <point x="1008.0" y="841.5" type="qcurve" smooth="yes" name="inserted"/>
      <point x="1056" y="791"/>
      <point x="1109" y="648"/>
      <point x="1109" y="558" type="qcurve" smooth="yes"/>
      <point x="1109" y="493"/>
      <point x="1082" y="357"/>
      <point x="1054.0" y="292.5" type="qcurve" smooth="yes" name="inserted"/>
      <point x="1026" y="228"/>
      <point x="942" y="114"/>
      <point x="885.0" y="71.0" type="qcurve" smooth="yes" name="inserted"/>
      <point x="828" y="28"/>
      <point x="683" y="-22"/>
    </contour>
    <contour>
      <point x="719" y="798" type="qcurve" smooth="yes"/>
      <point x="630" y="798"/>
      <point x="491" y="726"/>
      <point x="443.5" y="667.5" type="qcurve" smooth="yes" name="inserted"/>
      <point x="396" y="609"/>
      <point x="346" y="460"/>
      <point x="346" y="383" type="qcurve" smooth="yes"/>
      <point x="346" y="321"/>
      <point x="382" y="226"/>
      <point x="415.5" y="193.0" type="qcurve" smooth="yes" name="inserted"/>
      <point x="449" y="160"/>
      <point x="543" y="126"/>
      <point x="601" y="126" type="qcurve" smooth="yes"/>
      <point x="685" y="126"/>
      <point x="816" y="200"/>
      <point x="861.0" y="260.0" type="qcurve" smooth="yes" name="inserted"/>
      <point x="906" y="320"/>
      <point x="952" y="472"/>
      <point x="952" y="549" type="qcurve" smooth="yes"/>
      <point x="952" y="605"/>
      <point x="922" y="697"/>
      <point x="893.0" y="729.5" type="qcurve" smooth="yes" name="inserted"/>
      <point x="864" y="762"/>
      <point x="776" y="798"/>
    </contour>
  </outline>
</glyph>
<glyph name="f" format="2">
  <advance width="1228"/>
  <unicode hex="0066"/>
  <outline>
    <contour>
      <point x="566" y="844" type="line"/>
      <point x="588" y="967" type="line" smooth="yes"/>
      <point x="603" y="1049"/>
      <point x="670" y="1179"/>
      <point x="721.0" y="1224.0" type="qcurve" smooth="yes" name="inserted"/>
      <point x="772" y="1269"/>
      <point x="908" y="1317"/>
      <point x="992" y="1317" type="qcurve" smooth="yes"/>
      <point x="1063" y="1317"/>
      <point x="1192" y="1289"/>
      <point x="1249" y="1266" type="qcurve" smooth="yes"/>
      <point x="1274" y="1255"/>
      <point x="1300" y="1212"/>
      <point x="1286" y="1174" type="qcurve" smooth="yes"/>
      <point x="1272" y="1133"/>
      <point x="1228" y="1114"/>
      <point x="1204" y="1124" type="qcurve" smooth="yes"/>
      <point x="1150" y="1146"/>
      <point x="1036" y="1171"/>
      <point x="976" y="1171" type="qcurve" smooth="yes"/>
      <point x="870" y="1171"/>
      <point x="754" y="1057"/>
      <point x="736" y="954" type="qcurve" smooth="yes"/>
      <point x="716" y="844" type="line"/>
      <point x="1062" y="844" type="line" smooth="yes"/>
      <point x="1096" y="844"/>
      <point x="1120" y="814"/>
      <point x="1113" y="776" type="qcurve" smooth="yes"/>
      <point x="1107" y="738"/>
      <point x="1072" y="708"/>
      <point x="1038" y="708" type="qcurve" smooth="yes"/>
      <point x="692" y="708" type="line"/>
      <point x="551" y="-96" type="line" smooth="yes"/>
      <point x="524" y="-248"/>
      <point x="345" y="-415"/>
      <point x="194" y="-415" type="qcurve" smooth="yes"/>
      <point x="121" y="-415"/>
      <point x="-17" y="-373"/>
      <point x="-78" y="-329" type="qcurve" smooth="yes"/>
      <point x="-100" y="-313"/>
      <point x="-110" y="-267"/>
      <point x="-87" y="-231" type="qcurve" smooth="yes"/>
      <point x="-65" y="-196"/>
      <point x="-19" y="-185"/>
      <point x="1" y="-200" type="qcurve" smooth="yes"/>
      <point x="49" y="-236"/>
      <point x="153" y="-269"/>
      <point x="207" y="-269" type="qcurve" smooth="yes"/>
      <point x="289" y="-269"/>
      <point x="386" y="-180"/>
      <point x="403" y="-83" type="qcurve" smooth="yes"/>
      <point x="542" y="708" type="line"/>
      <point x="344" y="708" type="line" smooth="yes"/>
      <point x="310" y="708"/>
      <point x="287" y="738"/>
      <point x="293" y="776" type="qcurve" smooth="yes"/>
      <point x="300" y="814"/>
      <point x="334" y="844"/>
      <point x="368" y="844" type="qcurve" smooth="yes"/>
    </contour>
  </outline>
</glyph>
<glyph name="i" format="2">
  <advance width="1228"/>
  <unicode hex="0069"/>
  <outline>
    <contour>
      <point x="768" y="1168" type="line" smooth="yes"/>
      <point x="762" y="1133"/>
      <point x="719" y="1103"/>
      <point x="662" y="1103" type="qcurve" smooth="yes"/>
      <point x="605" y="1103"/>
      <point x="572" y="1133"/>
      <point x="578" y="1168" type="qcurve" smooth="yes"/>
      <point x="601" y="1298" type="line" smooth="yes"/>
      <point x="607" y="1333"/>
      <point x="651" y="1363"/>
      <point x="708" y="1363" type="qcurve" smooth="yes"/>
      <point x="765" y="1363"/>
      <point x="797" y="1333"/>
      <point x="791" y="1298" type="qcurve" smooth="yes"/>
    </contour>
    <contour>
      <point x="298" y="788" type="line" smooth="yes"/>
      <point x="264" y="788"/>
      <point x="241" y="818"/>
      <point x="247" y="856" type="qcurve" smooth="yes"/>
      <point x="254" y="894"/>
      <point x="288" y="924"/>
      <point x="322" y="924" type="qcurve" smooth="yes"/>
      <point x="662" y="924" type="line" smooth="yes"/>
      <point x="696" y="924"/>
      <point x="720" y="894"/>
      <point x="713" y="856" type="qcurve" smooth="yes"/>
      <point x="617" y="310" type="line" smooth="yes"/>
      <point x="614" y="292"/>
      <point x="610" y="258"/>
      <point x="610" y="244" type="qcurve" smooth="yes"/>
      <point x="610" y="181"/>
      <point x="674" y="124"/>
      <point x="744" y="124" type="qcurve" smooth="yes"/>
      <point x="802" y="124"/>
      <point x="914" y="162"/>
      <point x="976" y="200" type="qcurve" smooth="yes"/>
      <point x="1001" y="215"/>
      <point x="1045" y="196"/>
      <point x="1059" y="161" type="qcurve" smooth="yes"/>
      <point x="1073" y="125"/>
      <point x="1057" y="81"/>
      <point x="1029" y="65" type="qcurve" smooth="yes"/>
      <point x="952.5" y="21.5" name="inserted"/>
      <point x="802.5" y="-22.0"/>
      <point x="729" y="-22" type="qcurve" smooth="yes"/>
      <point x="598" y="-22"/>
      <point x="460" y="111"/>
      <point x="460" y="229" type="qcurve" smooth="yes"/>
      <point x="460.0" y="249.0" name="inserted"/>
      <point x="463.5" y="288.0"/>
      <point x="467" y="307" type="qcurve" smooth="yes"/>
      <point x="551" y="788" type="line"/>
    </contour>
  </outline>
</glyph>
<glyph name="j" format="2">
  <advance width="1228"/>
  <unicode hex="006A"/>
  <outline>
    <contour>
      <point x="932" y="924" type="line" smooth="yes"/>
      <point x="966" y="924"/>
      <point x="990" y="894"/>
      <point x="983" y="856" type="qcurve" smooth="yes"/>
      <point x="822" y="-62" type="line" smooth="yes"/>
      <point x="807" y="-148"/>
      <point x="750" y="-280"/>
      <point x="704.0" y="-324.5" type="qcurve" smooth="yes" name="inserted"/>
      <point x="658" y="-369"/>
      <point x="529" y="-415"/>
      <point x="442" y="-415" type="qcurve" smooth="yes"/>
      <point x="399" y="-415"/>
      <point x="309" y="-397"/>
      <point x="266.0" y="-382.0" type="qcurve" smooth="yes" name="inserted"/>
      <point x="223" y="-367"/>
      <point x="143" y="-326"/>
      <point x="110" y="-302" type="qcurve" smooth="yes"/>
      <point x="88" y="-286"/>
      <point x="76" y="-242"/>
      <point x="99" y="-204" type="qcurve" smooth="yes"/>
      <point x="122" y="-166"/>
      <point x="170" y="-157"/>
      <point x="190" y="-172" type="qcurve" smooth="yes"/>
      <point x="249" y="-214"/>
      <point x="388" y="-269"/>
      <point x="458" y="-269" type="qcurve" smooth="yes"/>
      <point x="508" y="-269"/>
      <point x="581" y="-242"/>
      <point x="606.5" y="-214.5" type="qcurve" smooth="yes" name="inserted"/>
      <point x="632" y="-187"/>
      <point x="664" y="-104"/>
      <point x="674" y="-49" type="qcurve" smooth="yes"/>
      <point x="821" y="788" type="line"/>
      <point x="398" y="788" type="line" smooth="yes"/>
      <point x="364" y="788"/>
      <point x="341" y="818"/>
      <point x="347" y="856" type="qcurve" smooth="yes"/>
      <point x="354" y="894"/>
      <point x="388" y="924"/>
      <point x="422" y="924" type="qcurve" smooth="yes"/>
    </contour>
    <contour>
      <point x="1038" y="1168" type="line" smooth="yes"/>
      <point x="1032" y="1133"/>
      <point x="989" y="1103"/>
      <point x="932" y="1103" type="qcurve" smooth="yes"/>
      <point x="875" y="1103"/>
      <point x="842" y="1133"/>
      <point x="848" y="1168" type="qcurve" smooth="yes"/>
      <point x="871" y="1298" type="line" smooth="yes"/>
      <point x="877" y="1333"/>
      <point x="921" y="1363"/>
      <point x="978" y="1363" type="qcurve" smooth="yes"/>
      <point x="1035" y="1363"/>
      <point x="1067" y="1333"/>
      <point x="1061" y="1298" type="qcurve" smooth="yes"/>
    </contour>
  </outline>
</glyph>
<glyph name="u" format="2">
  <advance width="1228"/>
  <unicode hex="0075"/>
  <outline>
    <contour>
      <point x="352" y="319" type="line" smooth="yes"/>
      <point x="350" y="305"/>
      <point x="347" y="278"/>
      <point x="347" y="265" type="qcurve" smooth="yes"/>
      <point x="347" y="201"/>
      <point x="411" y="126"/>
      <point x="480" y="126" type="qcurve" smooth="yes"/>
      <point x="544" y="126"/>
      <point x="671" y="188"/>
      <point x="724.5" y="242.0" type="qcurve" smooth="yes" name="inserted"/>
      <point x="778" y="296"/>
      <point x="855" y="440"/>
      <point x="870" y="522" type="qcurve" smooth="yes"/>
      <point x="917" y="788" type="line"/>
      <point x="775" y="788" type="line" smooth="yes"/>
      <point x="741" y="788"/>
      <point x="718" y="818"/>
      <point x="724" y="856" type="qcurve" smooth="yes"/>
      <point x="731" y="894"/>
      <point x="765" y="924"/>
      <point x="799" y="924" type="qcurve" smooth="yes"/>
      <point x="1028" y="924" type="line" smooth="yes"/>
      <point x="1062" y="924"/>
      <point x="1086" y="894"/>
      <point x="1079" y="856" type="qcurve" smooth="yes"/>
      <point x="952" y="136" type="line"/>
      <point x="1034" y="136" type="line" smooth="yes"/>
      <point x="1068" y="136"/>
      <point x="1092" y="106"/>
      <point x="1085" y="68" type="qcurve" smooth="yes"/>
      <point x="1079" y="30"/>
      <point x="1045" y="0"/>
      <point x="1011" y="0" type="qcurve" smooth="yes"/>
      <point x="851" y="0" type="line" smooth="yes"/>
      <point x="817" y="0"/>
      <point x="793" y="30"/>
      <point x="800" y="68" type="qcurve" smooth="yes"/>
      <point x="821" y="188" type="line"/>
      <point x="736" y="85"/>
      <point x="548" y="-22"/>
      <point x="449" y="-22" type="qcurve" smooth="yes"/>
      <point x="389" y="-22"/>
      <point x="294" y="15"/>
      <point x="261.5" y="49.0" type="qcurve" smooth="yes" name="inserted"/>
      <point x="229" y="83"/>
      <point x="194" y="179"/>
      <point x="194" y="238" type="qcurve" smooth="yes"/>
      <point x="194" y="256"/>
      <point x="197" y="294"/>
      <point x="201" y="314" type="qcurve" smooth="yes"/>
      <point x="285" y="788" type="line"/>
      <point x="203" y="788" type="line" smooth="yes"/>
      <point x="169" y="788"/>
      <point x="146" y="818"/>
      <point x="152" y="856" type="qcurve" smooth="yes"/>
      <point x="159" y="894"/>
      <point x="193" y="924"/>
      <point x="227" y="924" type="qcurve" smooth="yes"/>
      <point x="396" y="924" type="line" smooth="yes"/>
      <point x="430" y="924"/>
      <point x="454" y="894"/>
      <point x="447" y="856" type="qcurve" smooth="yes"/>
    </contour>
  </outline>
</glyph>
<glyph name="w" format="2">
  <advance width="1228"/>
  <unicode hex="0077"/>
  <outline>
    <contour>
      <point x="121" y="788" type="line" smooth="yes"/>
      <point x="87" y="788"/>
      <point x="64" y="818"/>
      <point x="70" y="856" type="qcurve" smooth="yes"/>
      <point x="77" y="894"/>
      <point x="111" y="924"/>
      <point x="145" y="924" type="qcurve" smooth="yes"/>
      <point x="439" y="924" type="line" smooth="yes"/>
      <point x="473" y="924"/>
      <point x="497" y="894"/>
      <point x="490" y="856" type="qcurve" smooth="yes"/>
      <point x="484" y="818"/>
      <point x="449" y="788"/>
      <point x="415" y="788" type="qcurve" smooth="yes"/>
      <point x="289" y="788" type="line"/>
      <point x="331" y="206" type="line"/>
      <point x="580" y="670" type="line" smooth="yes"/>
      <point x="591" y="690"/>
      <point x="631" y="717"/>
      <point x="664" y="717" type="qcurve" smooth="yes"/>
      <point x="698" y="717"/>
      <point x="730" y="697"/>
      <point x="734" y="677" type="qcurve" smooth="yes"/>
      <point x="817" y="206" type="line"/>
      <point x="1067" y="788" type="line"/>
      <point x="969" y="788" type="line" smooth="yes"/>
      <point x="935" y="788"/>
      <point x="912" y="818"/>
      <point x="918" y="856" type="qcurve" smooth="yes"/>
      <point x="925" y="894"/>
      <point x="959" y="924"/>
      <point x="993" y="924" type="qcurve" smooth="yes"/>
      <point x="1267" y="924" type="line" smooth="yes"/>
      <point x="1301" y="924"/>
      <point x="1325" y="894"/>
      <point x="1318" y="856" type="qcurve" smooth="yes"/>
      <point x="1312" y="818"/>
      <point x="1277" y="788"/>
      <point x="1243" y="788" type="qcurve" smooth="yes"/>
      <point x="1222" y="788" type="line"/>
      <point x="894" y="43" type="line" smooth="yes"/>
      <point x="878" y="7"/>
      <point x="834" y="-22"/>
      <point x="796" y="-22" type="qcurve" smooth="yes"/>
      <point x="753" y="-22"/>
      <point x="709" y="9"/>
      <point x="703" y="43" type="qcurve" smooth="yes"/>
      <point x="627" y="477" type="line"/>
      <point x="395" y="43" type="line" smooth="yes"/>
      <point x="377" y="8"/>
      <point x="321" y="-22"/>
      <point x="278" y="-22" type="qcurve" smooth="yes"/>
      <point x="240" y="-22"/>
      <point x="207" y="8"/>
      <point x="204" y="43" type="qcurve" smooth="yes"/>
      <point x="142" y="788" type="line"/>
    </contour>
  </outline>
</glyph>
<glyph name="x" format="2">
  <advance width="1228"/>
  <unicode hex="0078"/>
  <outline>
    <contour>
      <point x="474" y="788" type="line"/>
      <point x="644" y="561" type="line"/>
      <point x="893" y="788" type="line"/>
      <point x="849" y="788" type="line" smooth="yes"/>
      <point x="815" y="788"/>
      <point x="792" y="818"/>
      <point x="798" y="856" type="qcurve" smooth="yes"/>
      <point x="805" y="894"/>
      <point x="839" y="924"/>
      <point x="873" y="924" type="qcurve" smooth="yes"/>
      <point x="1177" y="924" type="line" smooth="yes"/>
      <point x="1211" y="924"/>
      <point x="1235" y="894"/>
      <point x="1228" y="856" type="qcurve" smooth="yes"/>
      <point x="1222" y="818"/>
      <point x="1187" y="788"/>
      <point x="1153" y="788" type="qcurve" smooth="yes"/>
      <point x="1086" y="788" type="line"/>
      <point x="731" y="473" type="line"/>
      <point x="991" y="136" type="line"/>
      <point x="1048" y="136" type="line" smooth="yes"/>
      <point x="1082" y="136"/>
      <point x="1106" y="106"/>
      <point x="1099" y="68" type="qcurve" smooth="yes"/>
      <point x="1093" y="30"/>
      <point x="1059" y="0"/>
      <point x="1025" y="0" type="qcurve" smooth="yes"/>
      <point x="681" y="0" type="line" smooth="yes"/>
      <point x="647" y="0"/>
      <point x="623" y="30"/>
      <point x="629" y="68" type="qcurve" smooth="yes"/>
      <point x="636" y="106"/>
      <point x="670" y="136"/>
      <point x="704" y="136" type="qcurve" smooth="yes"/>
      <point x="805" y="136" type="line"/>
      <point x="613" y="390" type="line"/>
      <point x="332" y="136" type="line"/>
      <point x="400" y="136" type="line" smooth="yes"/>
      <point x="434" y="136"/>
      <point x="458" y="106"/>
      <point x="451" y="68" type="qcurve" smooth="yes"/>
      <point x="445" y="30"/>
      <point x="411" y="0"/>
      <point x="377" y="0" type="qcurve" smooth="yes"/>
      <point x="63" y="0" type="line" smooth="yes"/>
      <point x="29" y="0"/>
      <point x="5" y="30"/>
      <point x="11" y="68" type="qcurve" smooth="yes"/>
      <point x="18" y="106"/>
      <point x="52" y="136"/>
      <point x="86" y="136" type="qcurve" smooth="yes"/>
      <point x="138" y="136" type="line"/>
      <point x="525" y="479" type="line"/>
      <point x="288" y="788" type="line"/>
      <point x="211" y="788" type="line" smooth="yes"/>
      <point x="177" y="788"/>
      <point x="154" y="818"/>
      <point x="160" y="856" type="qcurve" smooth="yes"/>
      <point x="167" y="894"/>
      <point x="201" y="924"/>
      <point x="235" y="924" type="qcurve" smooth="yes"/>
      <point x="579" y="924" type="line" smooth="yes"/>
      <point x="613" y="924"/>
      <point x="637" y="894"/>
      <point x="630" y="856" type="qcurve" smooth="yes"/>
      <point x="624" y="818"/>
      <point x="589" y="788"/>
      <point x="555" y="788" type="qcurve" smooth="yes"/>
    </contour>
  </outline>
</glyph>
<glyph name="z" format="2">
  <advance width="1228"/>
  <unicode hex="007A"/>
  <outline>
    <contour>
      <point x="863" y="136" type="line"/>
      <point x="894" y="308" type="line" smooth="yes"/>
      <point x="900" y="343"/>
      <point x="938" y="373"/>
      <point x="980" y="373" type="qcurve" smooth="yes"/>
      <point x="1022" y="373"/>
      <point x="1050" y="343"/>
      <point x="1044" y="308" type="qcurve" smooth="yes"/>
      <point x="1001" y="68" type="line" smooth="yes"/>
      <point x="994" y="30"/>
      <point x="961" y="0"/>
      <point x="927" y="0" type="qcurve" smooth="yes"/>
      <point x="181" y="0" type="line" smooth="yes"/>
      <point x="147" y="0"/>
      <point x="123" y="30"/>
      <point x="129" y="68" type="qcurve" smooth="yes"/>
      <point x="131.5" y="82.5" name="inserted"/>
      <point x="142.5" y="105.0"/>
      <point x="151" y="113" type="qcurve" smooth="yes"/>
      <point x="852" y="788" type="line"/>
      <point x="406" y="788" type="line"/>
      <point x="380" y="639" type="line" smooth="yes"/>
      <point x="374" y="604"/>
      <point x="336" y="574"/>
      <point x="294" y="574" type="qcurve" smooth="yes"/>
      <point x="252" y="574"/>
      <point x="224" y="604"/>
      <point x="230" y="639" type="qcurve" smooth="yes"/>
      <point x="268" y="856" type="line" smooth="yes"/>
      <point x="275" y="894"/>
      <point x="309" y="924"/>
      <point x="343" y="924" type="qcurve" smooth="yes"/>
      <point x="1059" y="924" type="line" smooth="yes"/>
      <point x="1093" y="924"/>
      <point x="1117" y="894"/>
      <point x="1110" y="856" type="qcurve"/>
      <point x="1108" y="840"/>
      <point x="1095" y="818"/>
      <point x="1087" y="810" type="qcurve" smooth="yes"/>
      <point x="387" y="136" type="line"/>
    </contour>
  </outline>
</glyph>
<glyph name="braceleft" format="2">
  <advance width="1228"/>
  <unicode hex="007B"/>
  <outline>
    <contour>
      <point x="502" y="482" type="qcurve"/>
      <point x="568" y="438"/>
      <point x="617" y="295"/>
      <point x="600" y="203" type="qcurve" smooth="yes"/>
      <point x="563" y="-8" type="line" smooth="yes"/>
      <point x="551" y="-75"/>
      <point x="559" y="-170"/>
      <point x="579.0" y="-200.0" type="qcurve" smooth="yes" name="inserted"/>
      <point x="599" y="-230"/>
      <point x="675" y="-257"/>
      <point x="731" y="-257" type="qcurve" smooth="yes"/>
      <point x="765" y="-257"/>
      <point x="789" y="-287"/>
      <point x="782" y="-325" type="qcurve" smooth="yes"/>
      <point x="775" y="-363"/>
      <point x="741" y="-393"/>
      <point x="707" y="-393" type="qcurve" smooth="yes"/>
      <point x="534" y="-393"/>
      <point x="380" y="-194"/>
      <point x="414" y="-3" type="qcurve" smooth="yes"/>
      <point x="449" y="193" type="line" smooth="yes"/>
      <point x="468" y="302"/>
      <point x="383" y="413"/>
      <point x="272" y="413" type="qcurve" smooth="yes"/>
      <point x="238" y="413"/>
      <point x="214" y="443"/>
      <point x="221" y="481" type="qcurve" smooth="yes"/>
      <point x="228" y="519"/>
      <point x="262" y="549"/>
      <point x="296" y="549" type="qcurve" smooth="yes"/>
      <point x="407" y="549"/>
      <point x="531" y="661"/>
      <point x="550" y="770" type="qcurve" smooth="yes"/>
      <point x="583" y="956" type="line" smooth="yes"/>
      <point x="600" y="1051"/>
      <point x="671" y="1186"/>
      <point x="725.0" y="1229.0" type="qcurve" smooth="yes" name="inserted"/>
      <point x="779" y="1272"/>
      <point x="921" y="1312"/>
      <point x="1008" y="1312" type="qcurve" smooth="yes"/>
      <point x="1042" y="1312"/>
      <point x="1066" y="1282"/>
      <point x="1059" y="1244" type="qcurve" smooth="yes"/>
      <point x="1052" y="1206"/>
      <point x="1018" y="1176"/>
      <point x="984" y="1176" type="qcurve" smooth="yes"/>
      <point x="874" y="1176"/>
      <point x="750" y="1056"/>
      <point x="728" y="927" type="qcurve" smooth="yes"/>
      <point x="699" y="760" type="line" smooth="yes"/>
      <point x="682" y="668"/>
      <point x="583" y="526"/>
    </contour>
  </outline>
</glyph>
<glyph name="braceright" format="2">
  <advance width="1228"/>
  <unicode hex="007D"/>
  <outline>
    <contour>
      <point x="754" y="480" type="qcurve"/>
      <point x="688" y="524"/>
      <point x="639" y="667"/>
      <point x="656" y="759" type="qcurve" smooth="yes"/>
      <point x="686" y="927" type="line" smooth="yes"/>
      <point x="698" y="994"/>
      <point x="690" y="1089"/>
      <point x="670.0" y="1119.0" type="qcurve" smooth="yes" name="inserted"/>
      <point x="650" y="1149"/>
      <point x="574" y="1176"/>
      <point x="518" y="1176" type="qcurve" smooth="yes"/>
      <point x="484" y="1176"/>
      <point x="460" y="1206"/>
      <point x="467" y="1244" type="qcurve" smooth="yes"/>
      <point x="474" y="1282"/>
      <point x="508" y="1312"/>
      <point x="542" y="1312" type="qcurve" smooth="yes"/>
      <point x="714" y="1312"/>
      <point x="869" y="1112"/>
      <point x="835" y="922" type="qcurve" smooth="yes"/>
      <point x="807" y="769" type="line" smooth="yes"/>
      <point x="788" y="660"/>
      <point x="873" y="549"/>
      <point x="984" y="549" type="qcurve" smooth="yes"/>
      <point x="1018" y="549"/>
      <point x="1042" y="519"/>
      <point x="1035" y="481" type="qcurve" smooth="yes"/>
      <point x="1028" y="443"/>
      <point x="994" y="413"/>
      <point x="960" y="413" type="qcurve" smooth="yes"/>
      <point x="849" y="413"/>
      <point x="725" y="301"/>
      <point x="706" y="192" type="qcurve" smooth="yes"/>
      <point x="666" y="-37" type="line" smooth="yes"/>
      <point x="649" y="-132"/>
      <point x="578" y="-267"/>
      <point x="524.0" y="-310.0" type="qcurve" smooth="yes" name="inserted"/>
      <point x="470" y="-353"/>
      <point x="328" y="-393"/>
      <point x="241" y="-393" type="qcurve" smooth="yes"/>
      <point x="207" y="-393"/>
      <point x="183" y="-363"/>
      <point x="190" y="-325" type="qcurve" smooth="yes"/>
      <point x="197" y="-287"/>
      <point x="231" y="-257"/>
      <point x="265" y="-257" type="qcurve" smooth="yes"/>
      <point x="374" y="-257"/>
      <point x="498" y="-137"/>
      <point x="521" y="-8" type="qcurve" smooth="yes"/>
      <point x="557" y="202" type="line" smooth="yes"/>
      <point x="574" y="294"/>
      <point x="673" y="436"/>
    </contour>
  </outline>
</glyph>
<glyph name="yen" format="2">
  <advance width="1228"/>
  <unicode hex="00A5"/>
  <outline>
    <contour>
      <point x="551" y="510" type="line"/>
      <point x="474" y="684" type="line"/>
      <point x="263" y="684" type="line" smooth="yes"/>
      <point x="229" y="684"/>
      <point x="205" y="714"/>
      <point x="212" y="752" type="qcurve" smooth="yes"/>
      <point x="219" y="790"/>
      <point x="253" y="820"/>
      <point x="287" y="820" type="qcurve" smooth="yes"/>
      <point x="414" y="820" type="line"/>
      <point x="312" y="1051" type="line"/>
      <point x="238" y="1051" type="line" smooth="yes"/>
      <point x="204" y="1051"/>
      <point x="180" y="1081"/>
      <point x="187" y="1119" type="qcurve" smooth="yes"/>
      <point x="194" y="1157"/>
      <point x="228" y="1187"/>
      <point x="262" y="1187" type="qcurve" smooth="yes"/>
      <point x="596" y="1187" type="line" smooth="yes"/>
      <point x="630" y="1187"/>
      <point x="654" y="1157"/>
      <point x="647" y="1119" type="qcurve" smooth="yes"/>
      <point x="640" y="1081"/>
      <point x="606" y="1051"/>
      <point x="572" y="1051" type="qcurve" smooth="yes"/>
      <point x="475" y="1051" type="line"/>
      <point x="653" y="642" type="line"/>
      <point x="977" y="1051" type="line"/>
      <point x="916" y="1051" type="line" smooth="yes"/>
      <point x="882" y="1051"/>
      <point x="858" y="1081"/>
      <point x="865" y="1119" type="qcurve" smooth="yes"/>
      <point x="872" y="1157"/>
      <point x="906" y="1187"/>
      <point x="940" y="1187" type="qcurve" smooth="yes"/>
      <point x="1244" y="1187" type="line" smooth="yes"/>
      <point x="1278" y="1187"/>
      <point x="1302" y="1157"/>
      <point x="1295" y="1119" type="qcurve" smooth="yes"/>
      <point x="1288" y="1081"/>
      <point x="1254" y="1051"/>
      <point x="1220" y="1051" type="qcurve" smooth="yes"/>
      <point x="1156" y="1051" type="line"/>
      <point x="971" y="820" type="line"/>
      <point x="1089" y="820" type="line" smooth="yes"/>
      <point x="1123" y="820"/>
      <point x="1147" y="790"/>
      <point x="1140" y="752" type="qcurve" smooth="yes"/>
      <point x="1133" y="714"/>
      <point x="1099" y="684"/>
      <point x="1065" y="684" type="qcurve" smooth="yes"/>
      <point x="862" y="684" type="line"/>
      <point x="723" y="510" type="line"/>
      <point x="1014" y="510" type="line" smooth="yes"/>
      <point x="1048" y="510"/>
      <point x="1072" y="480"/>
      <point x="1065" y="442" type="qcurve" smooth="yes"/>
      <point x="1059" y="404"/>
      <point x="1024" y="374"/>
      <point x="990" y="374" type="qcurve" smooth="yes"/>
      <point x="684" y="374" type="line"/>
      <point x="642" y="136" type="line"/>
      <point x="878" y="136" type="line" smooth="yes"/>
      <point x="912" y="136"/>
      <point x="936" y="106"/>
      <point x="929" y="68" type="qcurve" smooth="yes"/>
      <point x="923" y="30"/>
      <point x="889" y="0"/>
      <point x="855" y="0" type="qcurve" smooth="yes"/>
      <point x="253" y="0" type="line" smooth="yes"/>
      <point x="219" y="0"/>
      <point x="195" y="30"/>
      <point x="201" y="68" type="qcurve" smooth="yes"/>
      <point x="208" y="106"/>
      <point x="242" y="136"/>
      <point x="276" y="136" type="qcurve" smooth="yes"/>
      <point x="492" y="136" type="line"/>
      <point x="534" y="374" type="line"/>
      <point x="228" y="374" type="line" smooth="yes"/>
      <point x="194" y="374"/>
      <point x="171" y="404"/>
      <point x="177" y="442" type="qcurve" smooth="yes"/>
      <point x="184" y="480"/>
      <point x="218" y="510"/>
      <point x="252" y="510" type="qcurve" smooth="yes"/>
    </contour>
  </outline>
</glyph>
<glyph name="section" format="2">
  <advance width="1228"/>
  <unicode hex="00A7"/>
  <outline>
    <contour>
      <point x="710" y="1051" type="line" smooth="yes"/>
      <point x="638" y="1051"/>
      <point x="559" y="996"/>
      <point x="550" y="943" type="qcurve" smooth="yes"/>
      <point x="541" y="889"/>
      <point x="587" y="804"/>
      <point x="643" y="766" type="qcurve" smooth="yes"/>
      <point x="905" y="584" type="line" smooth="yes"/>
      <point x="974" y="536"/>
      <point x="1050" y="405"/>
      <point x="1035" y="318" type="qcurve" smooth="yes"/>
      <point x="1022" y="250"/>
      <point x="932" y="156"/>
      <point x="856" y="109" type="qcurve"/>
      <point x="861.5" y="82.5" name="inserted"/>
      <point x="862.0" y="28.0"/>
      <point x="857" y="0" type="qcurve" smooth="yes"/>
      <point x="839" y="-105"/>
      <point x="686" y="-230"/>
      <point x="548" y="-230" type="qcurve" smooth="yes"/>
      <point x="192" y="-230" type="line" smooth="yes"/>
      <point x="158" y="-230"/>
      <point x="134" y="-200"/>
      <point x="141" y="-162" type="qcurve" smooth="yes"/>
      <point x="179" y="55" type="line" smooth="yes"/>
      <point x="185" y="90"/>
      <point x="224" y="120"/>
      <point x="266" y="120" type="qcurve" smooth="yes"/>
      <point x="308" y="120"/>
      <point x="335" y="90"/>
      <point x="329" y="55" type="qcurve" smooth="yes"/>
      <point x="303" y="-94" type="line"/>
      <point x="546" y="-94" type="line" smooth="yes"/>
      <point x="618" y="-94"/>
      <point x="697" y="-39"/>
      <point x="706" y="14" type="qcurve" smooth="yes"/>
      <point x="715" y="68"/>
      <point x="669" y="153"/>
      <point x="613" y="191" type="qcurve" smooth="yes"/>
      <point x="351" y="373" type="line" smooth="yes"/>
      <point x="282" y="421"/>
      <point x="206" y="552"/>
      <point x="221" y="639" type="qcurve" smooth="yes"/>
      <point x="233" y="706"/>
      <point x="323" y="800"/>
      <point x="400" y="847" type="qcurve"/>
      <point x="395" y="873"/>
      <point x="394" y="928"/>
      <point x="399" y="957" type="qcurve" smooth="yes"/>
      <point x="417" y="1062"/>
      <point x="570" y="1187"/>
      <point x="708" y="1187" type="qcurve" smooth="yes"/>
      <point x="1064" y="1187" type="line" smooth="yes"/>
      <point x="1098" y="1187"/>
      <point x="1122" y="1157"/>
      <point x="1115" y="1119" type="qcurve" smooth="yes"/>
      <point x="1081" y="922" type="line" smooth="yes"/>
      <point x="1075" y="887"/>
      <point x="1036" y="857"/>
      <point x="994" y="857" type="qcurve" smooth="yes"/>
      <point x="952" y="857"/>
      <point x="925" y="887"/>
      <point x="931" y="922" type="qcurve" smooth="yes"/>
      <point x="953" y="1051" type="line"/>
    </contour>
    <contour>
      <point x="706" y="313" type="line" smooth="yes"/>
      <point x="734.0" y="293.5" name="inserted"/>
      <point x="780.0" y="251.0"/>
      <point x="798" y="228" type="qcurve"/>
      <point x="835" y="251"/>
      <point x="878" y="300"/>
      <point x="883" y="332" type="qcurve" smooth="yes"/>
      <point x="891" y="374"/>
      <point x="855" y="432"/>
      <point x="812" y="462" type="qcurve" smooth="yes"/>
      <point x="550" y="644" type="line" smooth="yes"/>
      <point x="523" y="663"/>
      <point x="476" y="705"/>
      <point x="457" y="729" type="qcurve"/>
      <point x="421" y="706"/>
      <point x="378" y="657"/>
      <point x="373" y="625" type="qcurve" smooth="yes"/>
      <point x="365" y="583"/>
      <point x="401" y="525"/>
      <point x="444" y="495" type="qcurve" smooth="yes"/>
    </contour>
  </outline>
</glyph>
<glyph name="macron" format="2">
  <advance width="1228"/>
  <unicode hex="00AF"/>
  <outline>
    <contour>
      <point x="1044" y="1246" type="line" smooth="yes"/>
      <point x="1078" y="1246"/>
      <point x="1102" y="1216"/>
      <point x="1095" y="1178" type="qcurve" smooth="yes"/>
      <point x="1088" y="1140"/>
      <point x="1054" y="1110"/>
      <point x="1020" y="1110" type="qcurve" smooth="yes"/>
      <point x="458" y="1110" type="line" smooth="yes"/>
      <point x="424" y="1110"/>
      <point x="400" y="1140"/>
      <point x="407" y="1178" type="qcurve" smooth="yes"/>
      <point x="414" y="1216"/>
      <point x="448" y="1246"/>
      <point x="482" y="1246" type="qcurve" smooth="yes"/>
    </contour>
  </outline>
</glyph>
<glyph name="cedilla" format="2">
  <advance width="1228"/>
  <unicode hex="00B8"/>
  <outline>
    <contour>
      <point x="463" y="28" type="line"/>
      <point x="598" y="28" type="line"/>
      <point x="573" y="-113" type="line"/>
      <point x="619" y="-112"/>
      <point x="686" y="-135"/>
      <point x="708.0" y="-154.5" type="qcurve" smooth="yes" name="inserted"/>
      <point x="730" y="-174"/>
      <point x="751" y="-228"/>
      <point x="751" y="-258" type="qcurve" smooth="yes"/>
      <point x="751" y="-273"/>
      <point x="745" y="-310"/>
      <point x="738.0" y="-329.0" type="qcurve" smooth="yes" name="inserted"/>
      <point x="731" y="-348"/>
      <point x="711" y="-383"/>
      <point x="697" y="-398" type="qcurve" smooth="yes"/>
      <point x="664" y="-433"/>
      <point x="555" y="-472"/>
      <point x="477" y="-472" type="qcurve" smooth="yes"/>
      <point x="410" y="-472"/>
      <point x="287" y="-448"/>
      <point x="239" y="-424" type="qcurve" smooth="yes"/>
      <point x="222" y="-415"/>
      <point x="221" y="-374"/>
      <point x="232" y="-354" type="qcurve" smooth="yes"/>
      <point x="242" y="-335"/>
      <point x="274" y="-311"/>
      <point x="291" y="-318" type="qcurve" smooth="yes"/>
      <point x="328" y="-333"/>
      <point x="427" y="-352"/>
      <point x="478" y="-352" type="qcurve" smooth="yes"/>
      <point x="538" y="-352"/>
      <point x="594" y="-306"/>
      <point x="594" y="-271" type="qcurve" smooth="yes"/>
      <point x="594" y="-237"/>
      <point x="524" y="-213"/>
      <point x="460" y="-217" type="qcurve"/>
      <point x="453" y="-217"/>
      <point x="439" y="-215"/>
      <point x="434.0" y="-210.5" type="qcurve" smooth="yes" name="inserted"/>
      <point x="429" y="-206"/>
      <point x="425" y="-189"/>
      <point x="428" y="-175" type="qcurve" smooth="yes"/>
    </contour>
  </outline>
</glyph>
<glyph name="AE" format="2">
  <advance width="1228"/>
  <unicode hex="00C6"/>
  <outline>
    <contour>
      <point x="340" y="374" type="line"/>
      <point x="227" y="136" type="line"/>
      <point x="310" y="136" type="line" smooth="yes"/>
      <point x="344" y="136"/>
      <point x="368" y="106"/>
      <point x="361" y="68" type="qcurve" smooth="yes"/>
      <point x="355" y="30"/>
      <point x="321" y="0"/>
      <point x="287" y="0" type="qcurve" smooth="yes"/>
      <point x="-7" y="0" type="line" smooth="yes"/>
      <point x="-41" y="0"/>
      <point x="-65" y="30"/>
      <point x="-59" y="68" type="qcurve" smooth="yes"/>
      <point x="-52" y="106"/>
      <point x="-18" y="136"/>
      <point x="16" y="136" type="qcurve" smooth="yes"/>
      <point x="66" y="136" type="line"/>
      <point x="503" y="1051" type="line"/>
      <point x="409" y="1051" type="line" smooth="yes"/>
      <point x="375" y="1051"/>
      <point x="351" y="1081"/>
      <point x="358" y="1119" type="qcurve" smooth="yes"/>
      <point x="365" y="1157"/>
      <point x="399" y="1187"/>
      <point x="433" y="1187" type="qcurve" smooth="yes"/>
      <point x="1202" y="1187" type="line" smooth="yes"/>
      <point x="1236" y="1187"/>
      <point x="1260" y="1157"/>
      <point x="1253" y="1119" type="qcurve" smooth="yes"/>
      <point x="1208" y="865" type="line" smooth="yes"/>
      <point x="1202" y="830"/>
      <point x="1164" y="800"/>
      <point x="1122" y="800" type="qcurve" smooth="yes"/>
      <point x="1080" y="800"/>
      <point x="1052" y="830"/>
      <point x="1058" y="865" type="qcurve" smooth="yes"/>
      <point x="1091" y="1051" type="line"/>
      <point x="831" y="1051" type="line"/>
      <point x="766" y="685" type="line"/>
      <point x="958" y="685" type="line" smooth="yes"/>
      <point x="992" y="685"/>
      <point x="1016" y="655"/>
      <point x="1009" y="617" type="qcurve" smooth="yes"/>
      <point x="1002" y="579"/>
      <point x="968" y="549"/>
      <point x="934" y="549" type="qcurve" smooth="yes"/>
      <point x="742" y="549" type="line"/>
      <point x="669" y="136" type="line"/>
      <point x="941" y="136" type="line"/>
      <point x="982" y="365" type="line" smooth="yes"/>
      <point x="988" y="400"/>
      <point x="1026" y="430"/>
      <point x="1068" y="430" type="qcurve" smooth="yes"/>
      <point x="1110" y="430"/>
      <point x="1138" y="400"/>
      <point x="1132" y="365" type="qcurve" smooth="yes"/>
      <point x="1079" y="68" type="line" smooth="yes"/>
      <point x="1073" y="30"/>
      <point x="1039" y="0"/>
      <point x="1005" y="0" type="qcurve" smooth="yes"/>
      <point x="559" y="0" type="line" smooth="yes"/>
      <point x="525" y="0"/>
      <point x="501" y="30"/>
      <point x="507" y="68" type="qcurve" smooth="yes"/>
      <point x="561" y="374" type="line"/>
    </contour>
    <contour>
      <point x="404" y="510" type="line"/>
      <point x="585" y="510" type="line"/>
      <point x="681" y="1051" type="line"/>
      <point x="661" y="1051" type="line"/>
    </contour>
  </outline>
</glyph>
<glyph name="ae" format="2">
  <advance width="1228"/>
  <unicode hex="00E6"/>
  <outline>
    <contour>
      <point x="696" y="440" type="line"/>
      <point x="690.0" y="401.5" name="inserted"/>
      <point x="684.0" y="335.5"/>
      <point x="684" y="308" type="qcurve" smooth="yes"/>
      <point x="684" y="256"/>
      <point x="702" y="185"/>
      <point x="718.0" y="163.5" type="qcurve" smooth="yes" name="inserted"/>
      <point x="734" y="142"/>
      <point x="778" y="123"/>
      <point x="804" y="123" type="qcurve" smooth="yes"/>
      <point x="852" y="123"/>
      <point x="938" y="160"/>
      <point x="988" y="201" type="qcurve" smooth="yes"/>
      <point x="1010" y="220"/>
      <point x="1062" y="216"/>
      <point x="1080" y="187" type="qcurve" smooth="yes"/>
      <point x="1099" y="158"/>
      <point x="1085" y="107"/>
      <point x="1056" y="84" type="qcurve" smooth="yes"/>
      <point x="991" y="31"/>
      <point x="861" y="-22"/>
      <point x="789" y="-22" type="qcurve" smooth="yes"/>
      <point x="710" y="-22"/>
      <point x="599" y="48"/>
      <point x="570" y="122" type="qcurve"/>
      <point x="510" y="55"/>
      <point x="352" y="-22"/>
      <point x="271" y="-22" type="qcurve" smooth="yes"/>
      <point x="219" y="-22"/>
      <point x="135" y="9"/>
      <point x="105.5" y="37.5" type="qcurve" smooth="yes" name="inserted"/>
      <point x="76" y="66"/>
      <point x="44" y="146"/>
      <point x="44" y="195" type="qcurve" smooth="yes"/>
      <point x="44" y="293"/>
      <point x="144" y="461"/>
      <point x="236" y="510" type="qcurve" smooth="yes"/>
      <point x="302.0" y="545.0" name="inserted"/>
      <point x="469.5" y="580.0"/>
      <point x="571" y="580" type="qcurve"/>
      <point x="575" y="602" type="line" smooth="yes"/>
      <point x="579.5" y="626.5" name="inserted"/>
      <point x="584.0" y="670.0"/>
      <point x="584" y="689" type="qcurve" smooth="yes"/>
      <point x="584" y="743"/>
      <point x="538" y="801"/>
      <point x="479" y="801" type="qcurve" smooth="yes"/>
      <point x="433" y="801"/>
      <point x="338" y="764"/>
      <point x="286" y="729" type="qcurve" smooth="yes"/>
      <point x="261" y="712"/>
      <point x="214" y="722"/>
      <point x="196" y="748" type="qcurve" smooth="yes"/>
      <point x="176.5" y="776.0" name="inserted"/>
      <point x="184.0" y="824.0"/>
      <point x="211" y="844" type="qcurve" smooth="yes"/>
      <point x="284" y="899"/>
      <point x="423" y="946"/>
      <point x="494" y="946" type="qcurve" smooth="yes"/>
      <point x="575" y="946"/>
      <point x="672" y="885"/>
      <point x="695" y="830" type="qcurve"/>
      <point x="745" y="888"/>
      <point x="868" y="946"/>
      <point x="939" y="946" type="qcurve" smooth="yes"/>
      <point x="1003" y="946"/>
      <point x="1095" y="904"/>
      <point x="1124.0" y="865.5" type="qcurve" smooth="yes" name="inserted"/>
      <point x="1153" y="827"/>
      <point x="1181" y="716"/>
      <point x="1181" y="647" type="qcurve" smooth="yes"/>
      <point x="1181.0" y="613.5" name="inserted"/>
      <point x="1175.0" y="541.0"/>
      <point x="1169" y="502" type="qcurve" smooth="yes"/>
      <point x="1164" y="468"/>
      <point x="1129" y="440"/>
      <point x="1095" y="440" type="qcurve" smooth="yes"/>
    </contour>
    <contour>
      <point x="546" y="440" type="line"/>
      <point x="474" y="440"/>
      <point x="359" y="420"/>
      <point x="316" y="398" type="qcurve" smooth="yes"/>
      <point x="258" y="369"/>
      <point x="197" y="269"/>
      <point x="197" y="209" type="qcurve" smooth="yes"/>
      <point x="197" y="165"/>
      <point x="246" y="119"/>
      <point x="289" y="119" type="qcurve" smooth="yes"/>
      <point x="331" y="119"/>
      <point x="410" y="152"/>
      <point x="442.5" y="181.0" type="qcurve" smooth="yes" name="inserted"/>
      <point x="475" y="210"/>
      <point x="520" y="292"/>
      <point x="528" y="340" type="qcurve" smooth="yes"/>
    </contour>
    <contour>
      <point x="926" y="801" type="qcurve" smooth="yes"/>
      <point x="857" y="801"/>
      <point x="759" y="699"/>
      <point x="726" y="580" type="qcurve"/>
      <point x="1026" y="580" type="line"/>
      <point x="1028" y="599"/>
      <point x="1031" y="633"/>
      <point x="1031" y="649" type="qcurve" smooth="yes"/>
      <point x="1031" y="721"/>
      <point x="983" y="801"/>
    </contour>
  </outline>
</glyph>
<glyph name="ccedilla" format="2">
  <advance width="1228"/>
  <unicode hex="00E7"/>
  <outline>
    <contour>
      <point x="475" y="-17" type="line"/>
      <point x="394" y="-7"/>
      <point x="267" y="61"/>
      <point x="223.0" y="113.5" type="qcurve" smooth="yes" name="inserted"/>
      <point x="179" y="166"/>
      <point x="132" y="302"/>
      <point x="132" y="380" type="qcurve" smooth="yes"/>
      <point x="132" y="490"/>
      <point x="214" y="694"/>
      <point x="288.5" y="773.0" type="qcurve" smooth="yes" name="inserted"/>
      <point x="363" y="852"/>
      <point x="572" y="946"/>
      <point x="700" y="946" type="qcurve" smooth="yes"/>
      <point x="792" y="946"/>
      <point x="932" y="873"/>
      <point x="971" y="811" type="qcurve"/>
      <point x="984" y="881" type="line" smooth="yes"/>
      <point x="991" y="916"/>
      <point x="1028" y="946"/>
      <point x="1070" y="946" type="qcurve" smooth="yes"/>
      <point x="1112" y="946"/>
      <point x="1140" y="916"/>
      <point x="1134" y="881" type="qcurve" smooth="yes"/>
      <point x="1083" y="591" type="line" smooth="yes"/>
      <point x="1077" y="556"/>
      <point x="1041" y="526"/>
      <point x="999" y="526" type="qcurve" smooth="yes"/>
      <point x="957" y="526"/>
      <point x="929" y="556"/>
      <point x="934" y="591" type="qcurve" smooth="yes"/>
      <point x="941" y="636"/>
      <point x="917" y="712"/>
      <point x="886.5" y="739.5" type="qcurve" smooth="yes" name="inserted"/>
      <point x="856" y="767"/>
      <point x="758" y="798"/>
      <point x="689" y="798" type="qcurve" smooth="yes"/>
      <point x="603" y="798"/>
      <point x="457" y="732"/>
      <point x="403.5" y="675.5" type="qcurve" smooth="yes" name="inserted"/>
      <point x="350" y="619"/>
      <point x="290" y="472"/>
      <point x="290" y="391" type="qcurve" smooth="yes"/>
      <point x="290" y="332"/>
      <point x="327" y="235"/>
      <point x="362.0" y="200.0" type="qcurve" smooth="yes" name="inserted"/>
      <point x="397" y="165"/>
      <point x="497" y="126"/>
      <point x="561" y="126" type="qcurve" smooth="yes"/>
      <point x="653" y="126"/>
      <point x="830" y="183"/>
      <point x="911" y="238" type="qcurve" smooth="yes"/>
      <point x="934" y="254"/>
      <point x="984" y="246"/>
      <point x="1004" y="211" type="qcurve" smooth="yes"/>
      <point x="1022.5" y="178.0" name="inserted"/>
      <point x="1010.0" y="125.0"/>
      <point x="979" y="105" type="qcurve" smooth="yes"/>
      <point x="900" y="54"/>
      <point x="709" y="-11"/>
      <point x="609" y="-19" type="qcurve"/>
      <point x="593" y="-113" type="line"/>
      <point x="639" y="-112"/>
      <point x="706" y="-135"/>
      <point x="728.0" y="-154.5" type="qcurve" smooth="yes" name="inserted"/>
      <point x="750" y="-174"/>
      <point x="771" y="-228"/>
      <point x="771" y="-258" type="qcurve" smooth="yes"/>
      <point x="771" y="-273"/>
      <point x="765" y="-310"/>
      <point x="758.0" y="-329.0" type="qcurve" smooth="yes" name="inserted"/>
      <point x="751" y="-348"/>
      <point x="731" y="-383"/>
      <point x="717" y="-398" type="qcurve" smooth="yes"/>
      <point x="684" y="-433"/>
      <point x="575" y="-472"/>
      <point x="497" y="-472" type="qcurve" smooth="yes"/>
      <point x="430" y="-472"/>
      <point x="307" y="-448"/>
      <point x="259" y="-424" type="qcurve" smooth="yes"/>
      <point x="242" y="-415"/>
      <point x="241" y="-374"/>
      <point x="252" y="-354" type="qcurve" smooth="yes"/>
      <point x="262" y="-335"/>
      <point x="294" y="-311"/>
      <point x="311" y="-318" type="qcurve" smooth="yes"/>
      <point x="348" y="-333"/>
      <point x="447" y="-352"/>
      <point x="498" y="-352" type="qcurve" smooth="yes"/>
      <point x="558" y="-352"/>
      <point x="614" y="-306"/>
      <point x="614" y="-271" type="qcurve" smooth="yes"/>
      <point x="614" y="-237"/>
      <point x="544" y="-213"/>
      <point x="480" y="-217" type="qcurve"/>
      <point x="473" y="-217"/>
      <point x="459" y="-215"/>
      <point x="454.0" y="-210.5" type="qcurve" smooth="yes" name="inserted"/>
      <point x="449" y="-206"/>
      <point x="445" y="-189"/>
      <point x="448" y="-175" type="qcurve" smooth="yes"/>
    </contour>
  </outline>
</glyph>
<glyph name="divide" format="2">
  <advance width="1228"/>
  <unicode hex="00F7"/>
  <outline>
    <contour>
      <point x="679" y="806" type="qcurve" smooth="yes"/>
      <point x="633" y="806"/>
      <point x="575" y="866"/>
      <point x="575" y="909" type="qcurve" smooth="yes"/>
      <point x="575" y="937"/>
      <point x="599" y="987"/>
      <point x="618.5" y="1005.5" type="qcurve" smooth="yes" name="inserted"/>
      <point x="638" y="1024"/>
      <point x="688" y="1045"/>
      <point x="715" y="1045" type="qcurve" smooth="yes"/>
      <point x="760" y="1045"/>
      <point x="817" y="986"/>
      <point x="817" y="943" type="qcurve" smooth="yes"/>
      <point x="817" y="914"/>
      <point x="794" y="865"/>
      <point x="774.5" y="846.0" type="qcurve" smooth="yes" name="inserted"/>
      <point x="755" y="827"/>
      <point x="706" y="806"/>
    </contour>
    <contour>
      <point x="579" y="120" type="qcurve" smooth="yes"/>
      <point x="533" y="120"/>
      <point x="475" y="180"/>
      <point x="475" y="223" type="qcurve" smooth="yes"/>
      <point x="475" y="251"/>
      <point x="499" y="301"/>
      <point x="518.5" y="319.5" type="qcurve" smooth="yes" name="inserted"/>
      <point x="538" y="338"/>
      <point x="588" y="359"/>
      <point x="615" y="359" type="qcurve" smooth="yes"/>
      <point x="660" y="359"/>
      <point x="717" y="300"/>
      <point x="717" y="257" type="qcurve" smooth="yes"/>
      <point x="717" y="228"/>
      <point x="694" y="179"/>
      <point x="674.5" y="160.0" type="qcurve" smooth="yes" name="inserted"/>
      <point x="655" y="141"/>
      <point x="606" y="120"/>
    </contour>
    <contour>
      <point x="1039" y="650" type="line" smooth="yes"/>
      <point x="1073" y="650"/>
      <point x="1097" y="620"/>
      <point x="1090" y="582" type="qcurve" smooth="yes"/>
      <point x="1083" y="544"/>
      <point x="1049" y="514"/>
      <point x="1015" y="514" type="qcurve" smooth="yes"/>
      <point x="253" y="514" type="line" smooth="yes"/>
      <point x="219" y="514"/>
      <point x="195" y="544"/>
      <point x="202" y="582" type="qcurve" smooth="yes"/>
      <point x="209" y="620"/>
      <point x="243" y="650"/>
      <point x="277" y="650" type="qcurve" smooth="yes"/>
    </contour>
  </outline>
</glyph>
<glyph name="scedilla" format="2">
  <advance width="1228"/>
  <unicode hex="015F"/>
  <outline>
    <contour>
      <point x="266" y="43" type="line" smooth="yes"/>
      <point x="260" y="8"/>
      <point x="222" y="-22"/>
      <point x="180" y="-22" type="qcurve" smooth="yes"/>
      <point x="138" y="-22"/>
      <point x="110" y="8"/>
      <point x="116" y="43" type="qcurve" smooth="yes"/>
      <point x="158" y="283" type="line" smooth="yes"/>
      <point x="164" y="318"/>
      <point x="203" y="348"/>
      <point x="245" y="348" type="qcurve" smooth="yes"/>
      <point x="267" y="348"/>
      <point x="287" y="329"/>
      <point x="292" y="307" type="qcurve" smooth="yes"/>
      <point x="312" y="210"/>
      <point x="464" y="123"/>
      <point x="603" y="123" type="qcurve" smooth="yes"/>
      <point x="682" y="123"/>
      <point x="786" y="158"/>
      <point x="816.5" y="184.0" type="qcurve" smooth="yes" name="inserted"/>
      <point x="847" y="210"/>
      <point x="871" y="269"/>
      <point x="871" y="293" type="qcurve" smooth="yes"/>
      <point x="871" y="330"/>
      <point x="811" y="371"/>
      <point x="763" y="382" type="qcurve" smooth="yes"/>
      <point x="717" y="393"/>
      <point x="622" y="404"/>
      <point x="574.5" y="409.5" type="qcurve" smooth="yes" name="inserted"/>
      <point x="527" y="415"/>
      <point x="432" y="431"/>
      <point x="385" y="447" type="qcurve" smooth="yes"/>
      <point x="351" y="458"/>
      <point x="294" y="490"/>
      <point x="273.0" y="512.0" type="qcurve" smooth="yes" name="inserted"/>
      <point x="252" y="534"/>
      <point x="229" y="591"/>
      <point x="229" y="629" type="qcurve" smooth="yes"/>
      <point x="229" y="691"/>
      <point x="279" y="805"/>
      <point x="329.0" y="849.0" type="qcurve" smooth="yes" name="inserted"/>
      <point x="379" y="893"/>
      <point x="532" y="946"/>
      <point x="634" y="946" type="qcurve" smooth="yes"/>
      <point x="734" y="946"/>
      <point x="883" y="887"/>
      <point x="931" y="836" type="qcurve"/>
      <point x="939" y="881" type="line" smooth="yes"/>
      <point x="945" y="916"/>
      <point x="983" y="946"/>
      <point x="1025" y="946" type="qcurve" smooth="yes"/>
      <point x="1067" y="946"/>
      <point x="1095" y="916"/>
      <point x="1089" y="881" type="qcurve" smooth="yes"/>
      <point x="1055" y="691" type="line" smooth="yes"/>
      <point x="1049" y="656"/>
      <point x="1011" y="626"/>
      <point x="969" y="626" type="qcurve" smooth="yes"/>
      <point x="951.5" y="626.0" name="inserted"/>
      <point x="929.5" y="639.0"/>
      <point x="925" y="652" type="qcurve" smooth="yes"/>
      <point x="910" y="695"/>
      <point x="855" y="753"/>
      <point x="816.0" y="770.0" type="qcurve" smooth="yes" name="inserted"/>
      <point x="777" y="787"/>
      <point x="677" y="801"/>
      <point x="619" y="801" type="qcurve" smooth="yes"/>
      <point x="560" y="801"/>
      <point x="473" y="776"/>
      <point x="444.5" y="755.5" type="qcurve" smooth="yes" name="inserted"/>
      <point x="416" y="735"/>
      <point x="389" y="682"/>
      <point x="389" y="655" type="qcurve" smooth="yes"/>
      <point x="389" y="620"/>
      <point x="448" y="584"/>
      <point x="498" y="573" type="qcurve" smooth="yes"/>
      <point x="544" y="563"/>
      <point x="637" y="552"/>
      <point x="684.0" y="546.5" type="qcurve" smooth="yes" name="inserted"/>
      <point x="731" y="541"/>
      <point x="825" y="525"/>
      <point x="870" y="510" type="qcurve" smooth="yes"/>
      <point x="904" y="499"/>
      <point x="963" y="466"/>
      <point x="985.0" y="443.0" type="qcurve" smooth="yes" name="inserted"/>
      <point x="1007" y="420"/>
      <point x="1031" y="359"/>
      <point x="1031" y="320" type="qcurve" smooth="yes"/>
      <point x="1031" y="272"/>
      <point x="994" y="158"/>
      <point x="948.0" y="107.5" type="qcurve" smooth="yes" name="inserted"/>
      <point x="902" y="57"/>
      <point x="747" y="-15"/>
      <point x="629" y="-21" type="qcurve"/>
      <point x="613" y="-113" type="line"/>
      <point x="659" y="-112"/>
      <point x="726" y="-135"/>
      <point x="748.0" y="-154.5" type="qcurve" smooth="yes" name="inserted"/>
      <point x="770" y="-174"/>
      <point x="791" y="-228"/>
      <point x="791" y="-258" type="qcurve" smooth="yes"/>
      <point x="791" y="-273"/>
      <point x="785" y="-310"/>
      <point x="778.0" y="-329.0" type="qcurve" smooth="yes" name="inserted"/>
      <point x="771" y="-348"/>
      <point x="751" y="-383"/>
      <point x="737" y="-398" type="qcurve" smooth="yes"/>
      <point x="704" y="-433"/>
      <point x="595" y="-472"/>
      <point x="517" y="-472" type="qcurve" smooth="yes"/>
      <point x="450" y="-472"/>
      <point x="327" y="-448"/>
      <point x="279" y="-424" type="qcurve" smooth="yes"/>
      <point x="262" y="-415"/>
      <point x="261" y="-374"/>
      <point x="272" y="-354" type="qcurve" smooth="yes"/>
      <point x="282" y="-335"/>
      <point x="314" y="-311"/>
      <point x="331" y="-318" type="qcurve" smooth="yes"/>
      <point x="368" y="-333"/>
      <point x="467" y="-352"/>
      <point x="518" y="-352" type="qcurve" smooth="yes"/>
      <point x="578" y="-352"/>
      <point x="634" y="-306"/>
      <point x="634" y="-271" type="qcurve" smooth="yes"/>
      <point x="634" y="-237"/>
      <point x="564" y="-213"/>
      <point x="500" y="-217" type="qcurve"/>
      <point x="493" y="-217"/>
      <point x="479" y="-215"/>
      <point x="474.0" y="-210.5" type="qcurve" smooth="yes" name="inserted"/>
      <point x="469" y="-206"/>
      <point x="465" y="-189"/>
      <point x="468" y="-175" type="qcurve" smooth="yes"/>
      <point x="495" y="-16" type="line"/>
      <point x="423.5" y="-5.5" name="inserted"/>
      <point x="314.0" y="52.0"/>
      <point x="276" y="99" type="qcurve"/>
    </contour>
  </outline>
</glyph>
<glyph name="uogonek" format="2">
  <advance width="1228"/>
  <unicode hex="0173"/>
  <outline>
    <contour>
      <point x="352" y="319" type="line" smooth="yes"/>
      <point x="350" y="305"/>
      <point x="347" y="278"/>
      <point x="347" y="265" type="qcurve" smooth="yes"/>
      <point x="347" y="201"/>
      <point x="411" y="126"/>
      <point x="480" y="126" type="qcurve" smooth="yes"/>
      <point x="544" y="126"/>
      <point x="671" y="188"/>
      <point x="724.5" y="242.0" type="qcurve" smooth="yes" name="inserted"/>
      <point x="778" y="296"/>
      <point x="855" y="440"/>
      <point x="870" y="522" type="qcurve" smooth="yes"/>
      <point x="917" y="788" type="line"/>
      <point x="775" y="788" type="line" smooth="yes"/>
      <point x="741" y="788"/>
      <point x="718" y="818"/>
      <point x="724" y="856" type="qcurve" smooth="yes"/>
      <point x="731" y="894"/>
      <point x="765" y="924"/>
      <point x="799" y="924" type="qcurve" smooth="yes"/>
      <point x="1028" y="924" type="line" smooth="yes"/>
      <point x="1062" y="924"/>
      <point x="1086" y="894"/>
      <point x="1079" y="856" type="qcurve" smooth="yes"/>
      <point x="952" y="136" type="line"/>
      <point x="1034" y="136" type="line" smooth="yes"/>
      <point x="1068" y="136"/>
      <point x="1092" y="106"/>
      <point x="1085" y="68" type="qcurve" smooth="yes"/>
      <point x="1079" y="30"/>
      <point x="1045" y="0"/>
      <point x="1011" y="0" type="qcurve" smooth="yes"/>
      <point x="1005" y="0" type="line"/>
      <point x="893" y="-88"/>
      <point x="789" y="-223"/>
      <point x="789" y="-277" type="qcurve" smooth="yes"/>
      <point x="789" y="-306"/>
      <point x="824" y="-336"/>
      <point x="854" y="-336" type="qcurve" smooth="yes"/>
      <point x="883" y="-336"/>
      <point x="938" y="-331"/>
      <point x="965" y="-326" type="qcurve" smooth="yes"/>
      <point x="985.0" y="-323.0" name="inserted"/>
      <point x="1008.5" y="-347.0"/>
      <point x="1012" y="-374" type="qcurve" smooth="yes"/>
      <point x="1016" y="-402"/>
      <point x="999" y="-435"/>
      <point x="976" y="-443" type="qcurve" smooth="yes"/>
      <point x="939" y="-456"/>
      <point x="845" y="-472"/>
      <point x="797" y="-472" type="qcurve" smooth="yes"/>
      <point x="716" y="-472"/>
      <point x="629" y="-382"/>
      <point x="629" y="-310" type="qcurve" smooth="yes"/>
      <point x="629" y="-227"/>
      <point x="736" y="-75"/>
      <point x="834" y="1" type="qcurve"/>
      <point x="810" y="4"/>
      <point x="794" y="36"/>
      <point x="800" y="68" type="qcurve" smooth="yes"/>
      <point x="821" y="188" type="line"/>
      <point x="736" y="85"/>
      <point x="548" y="-22"/>
      <point x="449" y="-22" type="qcurve" smooth="yes"/>
      <point x="389" y="-22"/>
      <point x="294" y="15"/>
      <point x="261.5" y="49.0" type="qcurve" smooth="yes" name="inserted"/>
      <point x="229" y="83"/>
      <point x="194" y="179"/>
      <point x="194" y="238" type="qcurve" smooth="yes"/>
      <point x="194" y="256"/>
      <point x="197" y="294"/>
      <point x="201" y="314" type="qcurve" smooth="yes"/>
      <point x="285" y="788" type="line"/>
      <point x="203" y="788" type="line" smooth="yes"/>
      <point x="169" y="788"/>
      <point x="146" y="818"/>
      <point x="152" y="856" type="qcurve" smooth="yes"/>
      <point x="159" y="894"/>
      <point x="193" y="924"/>
      <point x="227" y="924" type="qcurve" smooth="yes"/>
      <point x="396" y="924" type="line" smooth="yes"/>
      <point x="430" y="924"/>
      <point x="454" y="894"/>
      <point x="447" y="856" type="qcurve" smooth="yes"/>
    </contour>
  </outline>
</glyph>
<glyph name="breve" format="2">
  <advance width="1228"/>
  <unicode hex="02D8"/>
  <outline>
    <contour>
      <point x="756" y="1215" type="qcurve" smooth="yes"/>
      <point x="859" y="1215"/>
      <point x="997" y="1270"/>
      <point x="1043" y="1338" type="qcurve" smooth="yes"/>
      <point x="1055" y="1355"/>
      <point x="1101" y="1360"/>
      <point x="1121" y="1352" type="qcurve" smooth="yes"/>
      <point x="1140" y="1344"/>
      <point x="1162" y="1316"/>
      <point x="1154" y="1298" type="qcurve" smooth="yes"/>
      <point x="1111" y="1194"/>
      <point x="901" y="1071"/>
      <point x="745" y="1071" type="qcurve" smooth="yes"/>
      <point x="667" y="1071"/>
      <point x="544" y="1103"/>
      <point x="500.0" y="1132.5" type="qcurve" smooth="yes" name="inserted"/>
      <point x="456" y="1162"/>
      <point x="405" y="1246"/>
      <point x="400" y="1298" type="qcurve" smooth="yes"/>
      <point x="398" y="1317"/>
      <point x="425" y="1345"/>
      <point x="443" y="1352" type="qcurve" smooth="yes"/>
      <point x="462" y="1360"/>
      <point x="499" y="1354"/>
      <point x="505" y="1338" type="qcurve" smooth="yes"/>
      <point x="531" y="1270"/>
      <point x="653" y="1215"/>
    </contour>
  </outline>
</glyph>
<glyph name="ogonek" format="2">
  <advance width="1228"/>
  <unicode hex="02DB"/>
  <outline>
    <contour>
      <point x="514" y="-336" type="qcurve" smooth="yes"/>
      <point x="543" y="-336"/>
      <point x="598" y="-331"/>
      <point x="625" y="-326" type="qcurve" smooth="yes"/>
      <point x="645.0" y="-323.0" name="inserted"/>
      <point x="668.5" y="-347.0"/>
      <point x="672" y="-374" type="qcurve" smooth="yes"/>
      <point x="676" y="-402"/>
      <point x="659" y="-435"/>
      <point x="636" y="-443" type="qcurve" smooth="yes"/>
      <point x="599" y="-456"/>
      <point x="505" y="-472"/>
      <point x="457" y="-472" type="qcurve" smooth="yes"/>
      <point x="376" y="-472"/>
      <point x="289" y="-382"/>
      <point x="289" y="-310" type="qcurve" smooth="yes"/>
      <point x="289" y="-219"/>
      <point x="416" y="-56"/>
      <point x="531" y="28" type="qcurve"/>
      <point x="701" y="28" type="line"/>
      <point x="571" y="-71"/>
      <point x="449" y="-219"/>
      <point x="449" y="-277" type="qcurve" smooth="yes"/>
      <point x="449" y="-306"/>
      <point x="484" y="-336"/>
    </contour>
  </outline>
</glyph>
<glyph name="quotedblright" format="2">
  <advance width="1228"/>
  <unicode hex="201D"/>
  <outline>
    <contour>
      <point x="424" y="697" type="line" smooth="yes"/>
      <point x="409.5" y="675.5" name="inserted"/>
      <point x="367.5" y="654.0"/>
      <point x="340" y="654" type="qcurve" smooth="yes"/>
      <point x="305" y="654"/>
      <point x="276" y="691"/>
      <point x="289" y="723" type="qcurve" smooth="yes"/>
      <point x="463" y="1169" type="line" smooth="yes"/>
      <point x="470.5" y="1189.0" name="inserted"/>
      <point x="500.0" y="1209.0"/>
      <point x="522" y="1209" type="qcurve" smooth="yes"/>
      <point x="711" y="1209" type="line" smooth="yes"/>
      <point x="736" y="1209"/>
      <point x="746" y="1172"/>
      <point x="728" y="1146" type="qcurve" smooth="yes"/>
    </contour>
    <contour>
      <point x="834" y="697" type="line" smooth="yes"/>
      <point x="819.5" y="675.5" name="inserted"/>
      <point x="777.5" y="654.0"/>
      <point x="750" y="654" type="qcurve" smooth="yes"/>
      <point x="715" y="654"/>
      <point x="686" y="691"/>
      <point x="699" y="723" type="qcurve" smooth="yes"/>
      <point x="873" y="1169" type="line" smooth="yes"/>
      <point x="880.5" y="1189.0" name="inserted"/>
      <point x="910.0" y="1209.0"/>
      <point x="932" y="1209" type="qcurve" smooth="yes"/>
      <point x="1121" y="1209" type="line" smooth="yes"/>
      <point x="1146" y="1209"/>
      <point x="1156" y="1172"/>
      <point x="1138" y="1146" type="qcurve" smooth="yes"/>
    </contour>
  </outline>
</glyph>
<glyph name="Delta" format="2">
  <advance width="1228"/>
  <unicode hex="2206"/>
  <outline>
    <contour>
      <point x="642" y="1144" type="line" smooth="yes"/>
      <point x="661" y="1180"/>
      <point x="717" y="1209"/>
      <point x="757" y="1209" type="qcurve" smooth="yes"/>
      <point x="797" y="1209"/>
      <point x="840" y="1179"/>
      <point x="846" y="1144" type="qcurve" smooth="yes"/>
      <point x="1014" y="136" type="line"/>
      <point x="1098" y="136" type="line" smooth="yes"/>
      <point x="1132" y="136"/>
      <point x="1156" y="106"/>
      <point x="1149" y="68" type="qcurve" smooth="yes"/>
      <point x="1143" y="30"/>
      <point x="1109" y="0"/>
      <point x="1075" y="0" type="qcurve" smooth="yes"/>
      <point x="13" y="0" type="line" smooth="yes"/>
      <point x="-21" y="0"/>
      <point x="-45" y="30"/>
      <point x="-39" y="68" type="qcurve" smooth="yes"/>
      <point x="-32" y="106"/>
      <point x="2" y="136"/>
      <point x="36" y="136" type="qcurve" smooth="yes"/>
      <point x="113" y="136" type="line"/>
    </contour>
    <contour>
      <point x="863" y="136" type="line"/>
      <point x="729" y="1022" type="line"/>
      <point x="277" y="136" type="line"/>
    </contour>
  </outline>
</glyph>
<glyph name="commaaccent" format="2">
  <advance width="1228"/>
  <unicode hex="F6C3"/>
  <outline>
    <contour>
      <point x="425" y="-488" type="line" smooth="yes"/>
      <point x="414" y="-505"/>
      <point x="374" y="-525"/>
      <point x="351" y="-525" type="qcurve" smooth="yes"/>
      <point x="323" y="-525"/>
      <point x="300" y="-495"/>
      <point x="310" y="-469" type="qcurve" smooth="yes"/>
      <point x="420" y="-178" type="line" smooth="yes"/>
      <point x="426" y="-162"/>
      <point x="451" y="-146"/>
      <point x="468" y="-146" type="qcurve" smooth="yes"/>
      <point x="610" y="-146" type="line" smooth="yes"/>
      <point x="630" y="-146"/>
      <point x="637" y="-176"/>
      <point x="623" y="-197" type="qcurve" smooth="yes"/>
    </contour>
  </outline>
</glyph>
<glyph name="fi" format="2">
  <advance width="1228"/>
  <unicode hex="FB01"/>
  <outline>
    <contour>
      <point x="341" y="924" type="line"/>
      <point x="352" y="987" type="line" smooth="yes"/>
      <point x="366" y="1065"/>
      <point x="434" y="1188"/>
      <point x="485.5" y="1230.5" type="qcurve" smooth="yes" name="inserted"/>
      <point x="537" y="1273"/>
      <point x="672" y="1317"/>
      <point x="752" y="1317" type="qcurve" smooth="yes"/>
      <point x="823" y="1317"/>
      <point x="952" y="1289"/>
      <point x="1009" y="1266" type="qcurve" smooth="yes"/>
      <point x="1034" y="1255"/>
      <point x="1060" y="1212"/>
      <point x="1046" y="1174" type="qcurve" smooth="yes"/>
      <point x="1032" y="1133"/>
      <point x="988" y="1114"/>
      <point x="964" y="1124" type="qcurve" smooth="yes"/>
      <point x="910" y="1146"/>
      <point x="796" y="1171"/>
      <point x="736" y="1171" type="qcurve" smooth="yes"/>
      <point x="637" y="1171"/>
      <point x="517" y="1070"/>
      <point x="500" y="974" type="qcurve" smooth="yes"/>
      <point x="491" y="924" type="line"/>
      <point x="972" y="924" type="line" smooth="yes"/>
      <point x="1006" y="924"/>
      <point x="1030" y="894"/>
      <point x="1023" y="856" type="qcurve" smooth="yes"/>
      <point x="917" y="250" type="line" smooth="yes"/>
      <point x="915.0" y="240.0" name="inserted"/>
      <point x="913.0" y="220.0"/>
      <point x="913" y="210" type="qcurve" smooth="yes"/>
      <point x="913.0" y="167.0" name="inserted"/>
      <point x="958.5" y="124.0"/>
      <point x="1004" y="124" type="qcurve" smooth="yes"/>
      <point x="1033.5" y="124.0" name="inserted"/>
      <point x="1094.0" y="134.0"/>
      <point x="1125" y="144" type="qcurve" smooth="yes"/>
      <point x="1154" y="153"/>
      <point x="1186" y="125"/>
      <point x="1191" y="84" type="qcurve" smooth="yes"/>
      <point x="1196" y="47"/>
      <point x="1173" y="7"/>
      <point x="1143" y="-1" type="qcurve" smooth="yes"/>
      <point x="1108" y="-10"/>
      <point x="1029" y="-22"/>
      <point x="989" y="-22" type="qcurve" smooth="yes"/>
      <point x="935" y="-22"/>
      <point x="850" y="9"/>
      <point x="821.0" y="37.5" type="qcurve" smooth="yes" name="inserted"/>
      <point x="792" y="66"/>
      <point x="762" y="145"/>
      <point x="762" y="193" type="qcurve" smooth="yes"/>
      <point x="762.0" y="208.0" name="inserted"/>
      <point x="764.5" y="237.0"/>
      <point x="767" y="251" type="qcurve" smooth="yes"/>
      <point x="861" y="788" type="line"/>
      <point x="467" y="788" type="line"/>
      <point x="311" y="-96" type="line" smooth="yes"/>
      <point x="284" y="-248"/>
      <point x="105" y="-415"/>
      <point x="-46" y="-415" type="qcurve" smooth="yes"/>
      <point x="-91" y="-415"/>
      <point x="-187" y="-400"/>
      <point x="-228" y="-383" type="qcurve" smooth="yes"/>
      <point x="-254" y="-372"/>
      <point x="-272" y="-332"/>
      <point x="-259" y="-293" type="qcurve" smooth="yes"/>
      <point x="-246" y="-253"/>
      <point x="-200" y="-227"/>
      <point x="-175" y="-238" type="qcurve" smooth="yes"/>
      <point x="-143" y="-252"/>
      <point x="-68" y="-269"/>
      <point x="-33" y="-269" type="qcurve" smooth="yes"/>
      <point x="49" y="-269"/>
      <point x="146" y="-180"/>
      <point x="163" y="-83" type="qcurve" smooth="yes"/>
      <point x="317" y="788" type="line"/>
      <point x="188" y="788" type="line" smooth="yes"/>
      <point x="154" y="788"/>
      <point x="131" y="818"/>
      <point x="137" y="856" type="qcurve" smooth="yes"/>
      <point x="144" y="894"/>
      <point x="178" y="924"/>
      <point x="212" y="924" type="qcurve" smooth="yes"/>
    </contour>
  </outline>
</glyph>
<glyph name="comma.alt" format="2">
  <advance width="1228"/>
  <outline>
    <contour>
      <point x="687" y="-253" type="line" smooth="yes"/>
      <point x="672.5" y="-273.5" name="inserted"/>
      <point x="635.0" y="-294.0"/>
      <point x="612" y="-294" type="qcurve" smooth="yes"/>
      <point x="583" y="-294"/>
      <point x="549" y="-260"/>
      <point x="561" y="-228" type="qcurve" smooth="yes"/>
      <point x="745" y="254" type="line" smooth="yes"/>
      <point x="752.5" y="274.0" name="inserted"/>
      <point x="782.0" y="294.0"/>
      <point x="804" y="294" type="qcurve" smooth="yes"/>
      <point x="1012" y="294" type="line" smooth="yes"/>
      <point x="1037" y="294"/>
      <point x="1047" y="257"/>
      <point x="1029" y="231" type="qcurve" smooth="yes"/>
    </contour>
  </outline>
</glyph>
<glyph name="ellipsis.alt2" format="2">
  <advance width="3684"/>
  <outline>
    <contour>
      <point x="872" y="-22" type="qcurve" smooth="yes"/>
      <point x="840" y="-22"/>
      <point x="787" y="1"/>
      <point x="767.5" y="20.5" type="qcurve" smooth="yes" name="inserted"/>
      <point x="748" y="40"/>
      <point x="726" y="94"/>
      <point x="726" y="124" type="qcurve" smooth="yes"/>
      <point x="726" y="164"/>
      <point x="759" y="234"/>
      <point x="787.0" y="260.0" type="qcurve" smooth="yes" name="inserted"/>
      <point x="815" y="286"/>
      <point x="885" y="316"/>
      <point x="923" y="316" type="qcurve" smooth="yes"/>
      <point x="955" y="316"/>
      <point x="1008" y="293"/>
      <point x="1027.5" y="273.5" type="qcurve" smooth="yes" name="inserted"/>
      <point x="1047" y="254"/>
      <point x="1068" y="202"/>
      <point x="1068" y="172" type="qcurve" smooth="yes"/>
      <point x="1068" y="132"/>
      <point x="1035" y="61"/>
      <point x="1008.0" y="35.0" type="qcurve" smooth="yes" name="inserted"/>
      <point x="981" y="9"/>
      <point x="910" y="-22"/>
    </contour>
    <contour>
      <point x="1772" y="-22" type="qcurve" smooth="yes"/>
      <point x="1740" y="-22"/>
      <point x="1687" y="1"/>
      <point x="1667.5" y="20.5" type="qcurve" smooth="yes" name="inserted"/>
      <point x="1648" y="40"/>
      <point x="1626" y="94"/>
      <point x="1626" y="124" type="qcurve" smooth="yes"/>
      <point x="1626" y="164"/>
      <point x="1659" y="234"/>
      <point x="1687.0" y="260.0" type="qcurve" smooth="yes" name="inserted"/>
      <point x="1715" y="286"/>
      <point x="1785" y="316"/>
      <point x="1823" y="316" type="qcurve" smooth="yes"/>
      <point x="1855" y="316"/>
      <point x="1908" y="293"/>
      <point x="1927.5" y="273.5" type="qcurve" smooth="yes" name="inserted"/>
      <point x="1947" y="254"/>
      <point x="1968" y="202"/>
      <point x="1968" y="172" type="qcurve" smooth="yes"/>
      <point x="1968" y="132"/>
      <point x="1935" y="61"/>
      <point x="1908.0" y="35.0" type="qcurve" smooth="yes" name="inserted"/>
      <point x="1881" y="9"/>
      <point x="1810" y="-22"/>
    </contour>
    <contour>
      <point x="2672" y="-22" type="qcurve" smooth="yes"/>
      <point x="2640" y="-22"/>
      <point x="2587" y="1"/>
      <point x="2567.5" y="20.5" type="qcurve" smooth="yes" name="inserted"/>
      <point x="2548" y="40"/>
      <point x="2526" y="94"/>
      <point x="2526" y="124" type="qcurve" smooth="yes"/>
      <point x="2526" y="164"/>
      <point x="2559" y="234"/>
      <point x="2587.0" y="260.0" type="qcurve" smooth="yes" name="inserted"/>
      <point x="2615" y="286"/>
      <point x="2685" y="316"/>
      <point x="2723" y="316" type="qcurve" smooth="yes"/>
      <point x="2755" y="316"/>
      <point x="2808" y="293"/>
      <point x="2827.5" y="273.5" type="qcurve" smooth="yes" name="inserted"/>
      <point x="2847" y="254"/>
      <point x="2868" y="202"/>
      <point x="2868" y="172" type="qcurve" smooth="yes"/>
      <point x="2868" y="132"/>
      <point x="2835" y="61"/>
      <point x="2808.0" y="35.0" type="qcurve" smooth="yes" name="inserted"/>
      <point x="2781" y="9"/>
      <point x="2710" y="-22"/>
    </contour>
  </outline>
</glyph>
<glyph name="emdash.alt3" format="2">
  <advance width="2456"/>
  <outline>
    <contour>
      <point x="2153" y="650" type="line" smooth="yes"/>
      <point x="2187" y="650"/>
      <point x="2211" y="620"/>
      <point x="2204" y="582" type="qcurve" smooth="yes"/>
      <point x="2197" y="544"/>
      <point x="2163" y="514"/>
      <point x="2129" y="514" type="qcurve" smooth="yes"/>
      <point x="367" y="514" type="line" smooth="yes"/>
      <point x="333" y="514"/>
      <point x="309" y="544"/>
      <point x="316" y="582" type="qcurve" smooth="yes"/>
      <point x="323" y="620"/>
      <point x="357" y="650"/>
      <point x="391" y="650" type="qcurve" smooth="yes"/>
    </contour>
  </outline>
</glyph>
